<?xml version="1.0" encoding="utf-8"?>
<!-- Generator: Adobe Illustrator 19.0.0, SVG Export Plug-In . SVG Version: 6.00 Build 0)  -->
<svg version="1.1" id="Capa_1" xmlns="http://www.w3.org/2000/svg" xmlns:xlink="http://www.w3.org/1999/xlink" x="0px" y="0px"
	 viewBox="0 0 200 70.5" style="enable-background:new 0 0 200 70.5;" xml:space="preserve">
<style type="text/css">
	.st0{fill-rule:evenodd;clip-rule:evenodd;fill:#FFFFFF;}
	.st1{fill-rule:evenodd;clip-rule:evenodd;fill:#FEFEFF;}
	.st2{fill-rule:evenodd;clip-rule:evenodd;fill:#FBFDFE;}
	.st3{fill-rule:evenodd;clip-rule:evenodd;fill:#F9FBFD;}
	.st4{fill-rule:evenodd;clip-rule:evenodd;fill:#F6F8FB;}
	.st5{fill-rule:evenodd;clip-rule:evenodd;fill:#F4F7FA;}
	.st6{fill-rule:evenodd;clip-rule:evenodd;fill:#F0F4FA;}
	.st7{fill-rule:evenodd;clip-rule:evenodd;fill:#EEF3F9;}
	.st8{fill-rule:evenodd;clip-rule:evenodd;fill:#ECF1F7;}
	.st9{fill-rule:evenodd;clip-rule:evenodd;fill:#EAEFF6;}
	.st10{fill-rule:evenodd;clip-rule:evenodd;fill:#E7EEF4;}
	.st11{fill-rule:evenodd;clip-rule:evenodd;fill:#E5EBF3;}
	.st12{fill-rule:evenodd;clip-rule:evenodd;fill:#E3E9F2;}
	.st13{fill-rule:evenodd;clip-rule:evenodd;fill:#E0E8F1;}
</style>
<g id="XMLID_2_">
	<path id="XMLID_16_" class="st0" d="M170.2,40.9H17.1C24.3,36,33.6,33,43.7,33c2.7,0,5.4,0.2,8,0.6c-0.2-1.3-0.3-2.6-0.3-3.9
		c0-15.5,15.3-28.1,34.1-28.1c13.7,0,25.4,6.6,30.9,16.2c16.6,1.3,30.8,9.6,38,21.3c0.8,0,1.5-0.1,2.3-0.1
		C161.4,39,166,39.7,170.2,40.9z"/>
	<path id="XMLID_15_" class="st1" d="M183.2,47h-173C17.8,38.5,30,33,43.7,33c2.7,0,5.4,0.2,8,0.6c-0.2-1.3-0.3-2.6-0.3-3.9
		c0-15.5,15.3-28.1,34.1-28.1c13.7,0,25.4,6.6,30.9,16.2c16.6,1.3,30.8,9.6,38,21.3c0.8,0,1.5-0.1,2.3-0.1C166.7,39,176,42,183.2,47
		z"/>
	<path id="XMLID_14_" class="st2" d="M190.2,53H5.8c6.6-11.8,21.1-20,37.9-20c2.7,0,5.4,0.2,8,0.6c-0.2-1.3-0.3-2.6-0.3-3.9
		c0-15.5,15.3-28.1,34.1-28.1c13.7,0,25.4,6.6,30.9,16.2c16.6,1.3,30.8,9.6,38,21.3c0.8,0,1.5-0.1,2.3-0.1
		C170.4,39,182.6,44.5,190.2,53z"/>
	<path id="XMLID_13_" class="st3" d="M72.3,3.8h26.1c7.9,2.7,14.2,7.7,17.8,14.1c16.6,1.3,30.8,9.6,38,21.3c0.8,0,1.5-0.1,2.3-0.1
		c16.8,0,31.3,8.2,37.9,20H3.3c4.5-15,20.9-26,40.4-26c2.7,0,5.4,0.2,8,0.6c-0.2-1.3-0.3-2.6-0.3-3.9C51.3,18,60,8,72.3,3.8z"/>
	<path id="XMLID_12_" class="st4" d="M61.4,9.8h48.1c2.8,2.3,5.1,5,6.8,8c16.6,1.3,30.8,9.6,38,21.3c0.8,0,1.5-0.1,2.3-0.1
		c19.5,0,35.9,11.1,40.5,26.1H2.1C3.6,47.2,21.6,33,43.7,33c2.7,0,5.4,0.2,8,0.6c-0.2-1.3-0.3-2.6-0.3-3.9
		C51.3,21.9,55.2,14.9,61.4,9.8z"/>
	<path id="XMLID_11_" class="st5" d="M55.8,15.8H115c0.4,0.6,0.9,1.3,1.2,2c16.6,1.3,30.8,9.6,38,21.3c0.8,0,1.5-0.1,2.3-0.1
		c21.6,0,39.4,13.6,41.5,30.9H2.1C2,69.1,2,68.3,2,67.4C2,48.4,20.7,33,43.7,33c2.7,0,5.4,0.2,8,0.6c-0.2-1.3-0.3-2.6-0.3-3.9
		C51.3,24.7,52.9,19.9,55.8,15.8z"/>
	<path id="XMLID_10_" class="st6" d="M52.7,21.9h80.7c9,3.8,16.3,9.8,20.9,17.2c0.8,0,1.5-0.1,2.3-0.1c21.6,0,39.4,13.6,41.5,30.9
		H2.1C2,69.1,2,68.3,2,67.4C2,48.4,20.7,33,43.7,33c2.7,0,5.4,0.2,8,0.6c-0.2-1.3-0.3-2.6-0.3-3.9C51.3,27,51.8,24.4,52.7,21.9z"/>
	<path id="XMLID_9_" class="st7" d="M51.4,27.9H144c4.2,3.2,7.7,6.9,10.3,11.1c0.8,0,1.5-0.1,2.3-0.1c21.6,0,39.4,13.6,41.5,30.9
		H2.1C2,69.1,2,68.3,2,67.4C2,48.4,20.7,33,43.7,33c2.7,0,5.4,0.2,8,0.6c-0.2-1.3-0.3-2.6-0.3-3.9C51.3,29.1,51.4,28.5,51.4,27.9z"
		/>
	<path id="XMLID_8_" class="st8" d="M33.9,34h116.7c1.4,1.6,2.7,3.3,3.8,5.1c0.8,0,1.5-0.1,2.3-0.1c21.6,0,39.4,13.6,41.5,30.9H2.1
		C2,69.1,2,68.3,2,67.4C2,51.2,15.6,37.6,33.9,34z"/>
	<path id="XMLID_7_" class="st9" d="M18.5,40h148.1c16.9,3.4,29.7,15.3,31.5,29.9H2.1C2,69.1,2,68.3,2,67.4C2,56.2,8.5,46.3,18.5,40
		z"/>
	<path id="XMLID_6_" class="st10" d="M11,46.1h170.9c8.9,5.6,15,14.2,16.2,23.9H2.1C2,69.1,2,68.3,2,67.4C2,59.4,5.4,51.9,11,46.1z"
		/>
	<path id="XMLID_5_" class="st11" d="M6.4,52.1h183c4.8,5,7.9,11.1,8.8,17.8H2.1C2,69.1,2,68.3,2,67.4C2,61.9,3.6,56.7,6.4,52.1z"/>
	<path id="XMLID_4_" class="st12" d="M3.5,58.2H194c2.2,3.6,3.6,7.6,4.1,11.8H2.1C2,69.1,2,68.3,2,67.4C2,64.2,2.5,61.1,3.5,58.2z"
		/>
	<path id="XMLID_3_" class="st13" d="M2.2,64.2h194.6c0.6,1.9,1.1,3.8,1.3,5.7H2.1C2,69.1,2,68.3,2,67.4C2,66.3,2.1,65.3,2.2,64.2z"
		/>
</g>
</svg>
