<?xml version="1.0" encoding="utf-8"?>
<!-- Generator: Adobe Illustrator 19.0.0, SVG Export Plug-In . SVG Version: 6.00 Build 0)  -->
<svg version="1.1" id="Capa_1" xmlns="http://www.w3.org/2000/svg" xmlns:xlink="http://www.w3.org/1999/xlink" x="0px" y="0px"
	 viewBox="0 0 79.6 70.5" style="enable-background:new 0 0 79.6 70.5;" xml:space="preserve">
<style type="text/css">
	.st0{fill-rule:evenodd;clip-rule:evenodd;fill:#FFFFFF;}
	.st1{fill-rule:evenodd;clip-rule:evenodd;fill:#FEFEFF;}
	.st2{fill-rule:evenodd;clip-rule:evenodd;fill:#FBFDFE;}
	.st3{fill-rule:evenodd;clip-rule:evenodd;fill:#F9FBFD;}
	.st4{fill-rule:evenodd;clip-rule:evenodd;fill:#F6F8FB;}
	.st5{fill-rule:evenodd;clip-rule:evenodd;fill:#F4F7FA;}
	.st6{fill-rule:evenodd;clip-rule:evenodd;fill:#F0F4FA;}
	.st7{fill-rule:evenodd;clip-rule:evenodd;fill:#EEF3F9;}
	.st8{fill-rule:evenodd;clip-rule:evenodd;fill:#ECF1F7;}
	.st9{fill-rule:evenodd;clip-rule:evenodd;fill:#EAEFF6;}
	.st10{fill-rule:evenodd;clip-rule:evenodd;fill:#E7EEF4;}
	.st11{fill-rule:evenodd;clip-rule:evenodd;fill:#E5EBF3;}
	.st12{fill-rule:evenodd;clip-rule:evenodd;fill:#E3E9F2;}
	.st13{fill-rule:evenodd;clip-rule:evenodd;fill:#E0E8F1;}
	.st14{fill-rule:evenodd;clip-rule:evenodd;fill:#DDE6EF;}
	.st15{fill-rule:evenodd;clip-rule:evenodd;fill:#DBE4EE;}
	.st16{fill-rule:evenodd;clip-rule:evenodd;fill:#D9E2ED;}
	.st17{fill-rule:evenodd;clip-rule:evenodd;fill:#D7E0EC;}
	.st18{fill-rule:evenodd;clip-rule:evenodd;fill:#D4DEEB;}
	.st19{fill-rule:evenodd;clip-rule:evenodd;fill:#D2DDEA;}
	.st20{fill-rule:evenodd;clip-rule:evenodd;fill:#D0DBE9;}
	.st21{fill-rule:evenodd;clip-rule:evenodd;fill:#CEDAE7;}
	.st22{fill-rule:evenodd;clip-rule:evenodd;fill:#CBD8E6;}
	.st23{fill-rule:evenodd;clip-rule:evenodd;fill:#C9D6E6;}
	.st24{fill-rule:evenodd;clip-rule:evenodd;fill:#C6D5E4;}
	.st25{fill-rule:evenodd;clip-rule:evenodd;fill:#C4D3E3;}
</style>
<g id="XMLID_54_">
	<path id="XMLID_108_" class="st0" d="M67.9,21.6H12.4c1.4-0.3,2.9-0.5,4.5-0.5c0.8,0,1.6,0,2.3,0.1c-0.1-0.6-0.1-1.2-0.1-1.8
		c0-8.3,8.2-15.1,18.3-15.1c10.1,0,18.3,6.8,18.3,15.1c0,0.6,0,1.2-0.1,1.8c1.8-0.5,3.6-0.8,5.6-0.8C63.5,20.5,65.8,20.9,67.9,21.6z
		"/>
	<path id="XMLID_106_" class="st1" d="M72.9,24.2H6.5c2.8-2,6.4-3.2,10.4-3.2c0.8,0,1.6,0,2.3,0.1c-0.1-0.6-0.1-1.2-0.1-1.8
		c0-8.3,8.2-15.1,18.3-15.1c10.1,0,18.3,6.8,18.3,15.1c0,0.6,0,1.2-0.1,1.8c1.8-0.5,3.6-0.8,5.6-0.8C65.7,20.5,69.8,21.9,72.9,24.2z
		"/>
	<path id="XMLID_81_" class="st2" d="M75.6,26.9h-72c2.9-3.5,7.7-5.8,13.2-5.8c0.8,0,1.6,0,2.3,0.1c-0.1-0.6-0.1-1.2-0.1-1.8
		c0-8.3,8.2-15.1,18.3-15.1c10.1,0,18.3,6.8,18.3,15.1c0,0.6,0,1.2-0.1,1.8c1.8-0.5,3.6-0.8,5.6-0.8C67.2,20.5,72.5,23,75.6,26.9z"
		/>
	<path id="XMLID_78_" class="st3" d="M31,5.3h12.7c7,2.1,11.9,7.7,11.9,14.1c0,0.6,0,1.2-0.1,1.8c1.8-0.5,3.6-0.8,5.6-0.8
		c7.4,0,13.6,3.8,16.2,9.1H2c2.3-5,8.1-8.5,14.9-8.5c0.8,0,1.6,0,2.3,0.1c-0.1-0.6-0.1-1.2-0.1-1.8C19.1,13,24.1,7.4,31,5.3z"/>
	<path id="XMLID_76_" class="st4" d="M25.5,8h23.7c3.9,2.8,6.4,6.9,6.4,11.5c0,0.6,0,1.2-0.1,1.8c1.8-0.5,3.6-0.8,5.6-0.8
		c8.5,0,15.6,5,17.1,11.7H1.1c1.2-6.3,7.8-11.1,15.7-11.1c0.8,0,1.6,0,2.3,0.1c-0.1-0.6-0.1-1.2-0.1-1.8C19.1,14.8,21.6,10.7,25.5,8
		z"/>
	<path id="XMLID_75_" class="st5" d="M22.6,10.6h29.6c2.2,2.5,3.5,5.5,3.5,8.8c0,0.6,0,1.2-0.1,1.8c1.8-0.5,3.6-0.8,5.6-0.8
		c9.6,0,17.4,6.4,17.4,14.4H1c0-0.2,0-0.4,0-0.6c0-7.3,7.1-13.1,15.9-13.1c0.8,0,1.6,0,2.3,0.1c-0.1-0.6-0.1-1.2-0.1-1.8
		C19.1,16.1,20.4,13.1,22.6,10.6z"/>
	<path id="XMLID_74_" class="st6" d="M20.7,13.3h33.3c1,1.9,1.6,4,1.6,6.2c0,0.6,0,1.2-0.1,1.8c1.8-0.5,3.6-0.8,5.6-0.8
		c9.6,0,17.4,6.4,17.4,14.4c0,0.9-0.1,1.8-0.3,2.6H1.4c-0.3-1-0.5-2.1-0.5-3.3c0-7.3,7.1-13.1,15.9-13.1c0.8,0,1.6,0,2.3,0.1
		c-0.1-0.6-0.1-1.2-0.1-1.8C19.1,17.2,19.7,15.1,20.7,13.3z"/>
	<path id="XMLID_73_" class="st7" d="M19.6,15.9h35.5c0.3,1.1,0.5,2.3,0.5,3.5c0,0.6,0,1.2-0.1,1.8c1.8-0.5,3.6-0.8,5.6-0.8
		c9.6,0,17.4,6.4,17.4,14.4c0,1.9-0.4,3.7-1.2,5.3H2.7c-1.1-1.8-1.7-3.8-1.7-5.9c0-7.3,7.1-13.1,15.9-13.1c0.8,0,1.6,0,2.3,0.1
		c-0.1-0.6-0.1-1.2-0.1-1.8C19.1,18.2,19.3,17,19.6,15.9z"/>
	<path id="XMLID_72_" class="st8" d="M19.1,18.6h36.5c0,0.3,0,0.6,0,0.9c0,0.6,0,1.2-0.1,1.8c1.8-0.5,3.6-0.8,5.6-0.8
		c9.6,0,17.4,6.4,17.4,14.4c0,2.9-1.1,5.7-2.9,7.9H4.8c-2.4-2.3-3.9-5.3-3.9-8.6c0-7.3,7.1-13.1,15.9-13.1c0.8,0,1.6,0,2.3,0.1
		c-0.1-0.6-0.1-1.2-0.1-1.8C19.1,19.1,19.1,18.9,19.1,18.6z"/>
	<path id="XMLID_71_" class="st9" d="M14.5,21.2h41l0,0l0.1,0h11c6.9,1.9,11.9,7.3,11.9,13.6c0,4.2-2.2,8-5.6,10.6H8.5
		c0,0,0,0,0-0.1C4,43.1,0.9,38.9,0.9,34.2C0.9,27.6,6.8,22.2,14.5,21.2z"/>
	<path id="XMLID_70_" class="st10" d="M7.1,23.9h65.3c3.8,2.6,6.2,6.6,6.2,11c0,5.9-4.4,11.1-10.6,13.2H9.5c-0.4-0.9-0.7-1.8-1-2.7
		C4,43.1,0.9,38.9,0.9,34.2C0.9,30,3.3,26.3,7.1,23.9z"/>
	<path id="XMLID_69_" class="st11" d="M4,26.5h71.4c2,2.4,3.2,5.2,3.2,8.3c0,7.9-7.8,14.4-17.4,14.4c-0.3,0-0.6,0-0.8,0
		c0.2,0.5,0.3,1,0.5,1.5H11c-1.2-1.6-2-3.4-2.5-5.4C4,43.1,0.9,38.9,0.9,34.2C0.9,31.3,2.1,28.7,4,26.5z"/>
	<path id="XMLID_68_" class="st12" d="M2.2,29.2h75c0.9,1.7,1.4,3.7,1.4,5.7c0,7.9-7.8,14.4-17.4,14.4c-0.3,0-0.6,0-0.8,0
		c0.5,1.2,0.7,2.4,0.7,3.7c0,0.1,0,0.3,0,0.4H13.3c-2.3-2.3-4-5-4.8-8C4,43.1,0.9,38.9,0.9,34.2C0.9,32.4,1.4,30.7,2.2,29.2z"/>
	<path id="XMLID_67_" class="st13" d="M1.2,31.8h77c0.3,1,0.4,2,0.4,3c0,7.9-7.8,14.4-17.4,14.4c-0.3,0-0.6,0-0.8,0
		c0.5,1.2,0.7,2.4,0.7,3.7c0,1.1-0.2,2.1-0.5,3.1H16.6c-4-2.6-7-6.4-8.1-10.7C4,43.1,0.9,38.9,0.9,34.2C0.9,33.4,1,32.6,1.2,31.8z"
		/>
	<path id="XMLID_66_" class="st14" d="M0.9,34.5h77.6c0,0.1,0,0.3,0,0.4c0,7.9-7.8,14.4-17.4,14.4c-0.3,0-0.6,0-0.8,0
		c0.5,1.2,0.7,2.4,0.7,3.7c0,2.1-0.6,4-1.7,5.7H22.1c-6.8-2.3-12-7.2-13.6-13.3C4,43.1,1,39.1,0.9,34.5z"/>
	<path id="XMLID_65_" class="st15" d="M1.3,37.1h77C77,44,69.8,49.2,61.1,49.2c-0.3,0-0.6,0-0.8,0c0.5,1.2,0.7,2.4,0.7,3.7
		c0,3.2-1.5,6.2-4,8.4H35.1c-0.5-0.5-1-1-1.4-1.5c-1,0.1-2.1,0.2-3.1,0.2c-10.8,0-19.8-6.3-22-14.6C4.9,43.6,2.3,40.6,1.3,37.1z"/>
	<path id="XMLID_64_" class="st16" d="M2.4,39.8h75.1c-2.4,5.5-8.8,9.5-16.4,9.5c-0.3,0-0.6,0-0.8,0c0.5,1.2,0.7,2.4,0.7,3.7
		c0,4.8-3.4,9-8.3,11H39.4c-2.3-1-4.3-2.4-5.7-4.1c-1,0.1-2.1,0.2-3.1,0.2c-10.8,0-19.8-6.3-22-14.6C5.9,44,3.7,42.1,2.4,39.8z"/>
	<path id="XMLID_63_" class="st17" d="M4.4,42.4H76c-3.1,4.1-8.6,6.8-14.8,6.8c-0.3,0-0.6,0-0.8,0c0.5,1.2,0.7,2.4,0.7,3.7
		c0,6.8-6.7,12.3-14.9,12.3c-5.2,0-9.7-2.2-12.4-5.4c-1,0.1-2.1,0.2-3.1,0.2c-10.8,0-19.8-6.3-22-14.6C6.9,44.6,5.6,43.6,4.4,42.4z"
		/>
	<path id="XMLID_62_" class="st18" d="M7.9,45.1h65.5c-3.1,2.6-7.5,4.2-12.3,4.2c-0.3,0-0.6,0-0.8,0c0.5,1.2,0.7,2.4,0.7,3.7
		c0,6.8-6.7,12.3-14.9,12.3c-5.2,0-9.7-2.2-12.4-5.4c-1,0.1-2.1,0.2-3.1,0.2c-10.8,0-19.8-6.3-22-14.6C8.3,45.3,8.1,45.2,7.9,45.1z"
		/>
	<path id="XMLID_61_" class="st19" d="M9.3,47.7h59.7c-2.4,1-5,1.5-7.8,1.5c-0.3,0-0.6,0-0.8,0c0.5,1.2,0.7,2.4,0.7,3.7
		c0,6.8-6.7,12.3-14.9,12.3c-5.2,0-9.7-2.2-12.4-5.4c-1,0.1-2.1,0.2-3.1,0.2C20.7,60,12.4,54.9,9.3,47.7z"/>
	<path id="XMLID_60_" class="st20" d="M10.7,50.4h49.9c0.2,0.8,0.3,1.7,0.3,2.6c0,6.8-6.7,12.3-14.9,12.3c-5.2,0-9.7-2.2-12.4-5.4
		c-1,0.1-2.1,0.2-3.1,0.2C22,60,14.6,56.1,10.7,50.4z"/>
	<path id="XMLID_59_" class="st21" d="M12.9,53H61c0,6.8-6.7,12.3-14.9,12.3c-5.2,0-9.7-2.2-12.4-5.4c-1,0.1-2.1,0.2-3.1,0.2
		C23.4,60,17,57.3,12.9,53z"/>
	<path id="XMLID_58_" class="st22" d="M16,55.7h44.6c-1.5,5.5-7.5,9.6-14.6,9.6c-5.2,0-9.7-2.2-12.4-5.4c-1,0.1-2.1,0.2-3.1,0.2
		C25,60,19.9,58.4,16,55.7z"/>
	<path id="XMLID_57_" class="st23" d="M21,58.3h38.5c-2.4,4.1-7.5,7-13.5,7c-5.2,0-9.7-2.2-12.4-5.4c-1,0.1-2.1,0.2-3.1,0.2
		C27.1,60,23.9,59.4,21,58.3z"/>
	<path id="XMLID_56_" class="st24" d="M34.7,61h22.7c-2.7,2.6-6.8,4.3-11.4,4.3C41.5,65.3,37.4,63.6,34.7,61z"/>
	<path id="XMLID_55_" class="st25" d="M38.5,63.6h15c-2.2,1.1-4.8,1.7-7.5,1.7C43.3,65.3,40.7,64.7,38.5,63.6z"/>
</g>
</svg>
