<?xml version="1.0" encoding="utf-8"?>
<!-- Generator: Adobe Illustrator 19.0.0, SVG Export Plug-In . SVG Version: 6.00 Build 0)  -->
<svg version="1.1" id="Capa_1" xmlns="http://www.w3.org/2000/svg" xmlns:xlink="http://www.w3.org/1999/xlink" x="0px" y="0px"
	 viewBox="0 0 79.6 70.5" style="enable-background:new 0 0 79.6 70.5;" xml:space="preserve">
<style type="text/css">
	.st0{fill-rule:evenodd;clip-rule:evenodd;fill:#FFFFFF;}
	.st1{fill-rule:evenodd;clip-rule:evenodd;fill:#FEFEFF;}
	.st2{fill-rule:evenodd;clip-rule:evenodd;fill:#FBFDFE;}
	.st3{fill-rule:evenodd;clip-rule:evenodd;fill:#F9FBFD;}
	.st4{fill-rule:evenodd;clip-rule:evenodd;fill:#F6F8FB;}
	.st5{fill-rule:evenodd;clip-rule:evenodd;fill:#F4F7FA;}
	.st6{fill-rule:evenodd;clip-rule:evenodd;fill:#F0F4FA;}
	.st7{fill-rule:evenodd;clip-rule:evenodd;fill:#EEF3F9;}
	.st8{fill-rule:evenodd;clip-rule:evenodd;fill:#ECF1F7;}
	.st9{fill-rule:evenodd;clip-rule:evenodd;fill:#EAEFF6;}
	.st10{fill-rule:evenodd;clip-rule:evenodd;fill:#E7EEF4;}
	.st11{fill-rule:evenodd;clip-rule:evenodd;fill:#E5EBF3;}
	.st12{fill-rule:evenodd;clip-rule:evenodd;fill:#E3E9F2;}
	.st13{fill-rule:evenodd;clip-rule:evenodd;fill:#E0E8F1;}
	.st14{fill-rule:evenodd;clip-rule:evenodd;fill:#DDE6EF;}
	.st15{fill-rule:evenodd;clip-rule:evenodd;fill:#DBE4EE;}
	.st16{fill-rule:evenodd;clip-rule:evenodd;fill:#D9E2ED;}
	.st17{fill-rule:evenodd;clip-rule:evenodd;fill:#D7E0EC;}
	.st18{fill-rule:evenodd;clip-rule:evenodd;fill:#D4DEEB;}
	.st19{fill-rule:evenodd;clip-rule:evenodd;fill:#D2DDEA;}
	.st20{fill-rule:evenodd;clip-rule:evenodd;fill:#D0DBE9;}
	.st21{fill-rule:evenodd;clip-rule:evenodd;fill:#CEDAE7;}
	.st22{fill-rule:evenodd;clip-rule:evenodd;fill:#CBD8E6;}
</style>
<g id="XMLID_78_">
	<path id="XMLID_76_" class="st0" d="M61.7,23.4H0.7V2.7c3.1-1.6,6.8-2.6,10.8-2.6c8.1,0,15.1,3.9,18.3,9.6
		c9.9,0.8,18.2,5.7,22.6,12.6c0.5,0,0.9,0,1.4,0C56.5,22.3,59.2,22.7,61.7,23.4z"/>
	<path id="XMLID_75_" class="st1" d="M69.4,27H0.7V2.7c3.1-1.6,6.8-2.6,10.8-2.6c8.1,0,15.1,3.9,18.3,9.6
		c9.9,0.8,18.2,5.7,22.6,12.6c0.5,0,0.9,0,1.4,0C59.7,22.3,65.2,24.1,69.4,27z"/>
	<path id="XMLID_74_" class="st2" d="M73.6,30.6H0.7V2.7c3.1-1.6,6.8-2.6,10.8-2.6c8.1,0,15.1,3.9,18.3,9.6
		c9.9,0.8,18.2,5.7,22.6,12.6c0.5,0,0.9,0,1.4,0C61.8,22.3,69.1,25.6,73.6,30.6z"/>
	<path id="XMLID_73_" class="st3" d="M3.7,1.4h15.5C23.8,3,27.6,6,29.7,9.8c9.9,0.8,18.2,5.7,22.6,12.6c0.5,0,0.9,0,1.4,0
		c10,0,18.5,4.9,22.5,11.9H0.7V2.7C1.6,2.2,2.6,1.8,3.7,1.4z"/>
	<path id="XMLID_72_" class="st4" d="M0.7,5h25c1.7,1.4,3,3,4.1,4.8c9.9,0.8,18.2,5.7,22.6,12.6c0.5,0,0.9,0,1.4,0
		c11.6,0,21.3,6.6,24,15.5h-77V5z"/>
	<path id="XMLID_71_" class="st5" d="M0.7,8.6H29c0.3,0.4,0.5,0.8,0.7,1.2c9.9,0.8,18.2,5.7,22.6,12.6c0.5,0,0.9,0,1.4,0
		c13.1,0,23.8,8.4,24.7,19H0.7V8.6z"/>
	<path id="XMLID_70_" class="st6" d="M0.7,12.2h39.2c5.3,2.2,9.7,5.8,12.4,10.2c0.5,0,0.9,0,1.4,0c13.7,0,24.7,9.1,24.7,20.4
		c0,0.8-0.1,1.5-0.1,2.2H0.7V12.2z"/>
	<path id="XMLID_69_" class="st7" d="M0.7,15.7h45.5c2.5,1.9,4.6,4.1,6.1,6.6c0.5,0,0.9,0,1.4,0c13.7,0,24.7,9.1,24.7,20.4
		c0,2-0.4,4-1,5.8H0.7V15.7z"/>
	<path id="XMLID_68_" class="st8" d="M0.7,19.3H50c0.8,1,1.6,2,2.2,3c0.5,0,0.9,0,1.4,0c13.7,0,24.7,9.1,24.7,20.4
		c0,3.4-1,6.6-2.8,9.4H0.7V19.3z"/>
	<path id="XMLID_67_" class="st9" d="M0.7,22.9h58.9c10.8,2.2,18.8,10.2,18.8,19.8c0,4.9-2.1,9.5-5.6,13H0.7V22.9z"/>
	<path id="XMLID_66_" class="st10" d="M0.7,26.5h68c5.9,3.7,9.7,9.6,9.7,16.2c0,6.8-4.1,12.9-10.3,16.6H0.7V26.5z"/>
	<path id="XMLID_65_" class="st11" d="M0.7,30.1h72.4c3.3,3.5,5.3,7.9,5.3,12.6c0,10.2-9,18.6-20.8,20.1h-7.9
		c-1.7-0.2-3.4-0.6-5-1.1c0,0.4,0,0.8-0.1,1.1H0.7V30.1z"/>
	<path id="XMLID_64_" class="st12" d="M0.7,33.7h75.2c1.6,2.7,2.6,5.8,2.6,9.1c0,11.3-11.1,20.4-24.7,20.4c-3.2,0-6.2-0.5-9-1.4
		c-0.1,1.6-0.4,3.2-0.9,4.7H0.7V33.7z"/>
	<path id="XMLID_63_" class="st13" d="M0.7,37.3h76.8c0.6,1.7,0.9,3.6,0.9,5.5c0,11.3-11.1,20.4-24.7,20.4c-3.2,0-6.2-0.5-9-1.4
		c-0.1,2.8-0.9,5.5-2.3,7.9H0.7V37.3z"/>
	<path id="XMLID_62_" class="st14" d="M0.7,40.8h77.6c0.1,0.6,0.1,1.2,0.1,1.9c0,11.3-11.1,20.4-24.7,20.4c-3.2,0-6.2-0.5-9-1.4
		c-0.1,2.8-0.9,5.5-2.3,7.9H0.7V40.8z"/>
	<path id="XMLID_61_" class="st15" d="M0.7,44.4h77.6c-1,10.5-11.7,18.7-24.6,18.7c-3.2,0-6.2-0.5-9-1.4c-0.1,2.8-0.9,5.5-2.3,7.9
		H0.7V44.4z"/>
	<path id="XMLID_60_" class="st16" d="M0.7,48h76.9c-2.8,8.7-12.4,15.1-23.9,15.1c-3.2,0-6.2-0.5-9-1.4c-0.1,2.8-0.9,5.5-2.3,7.9
		H0.7V48z"/>
	<path id="XMLID_59_" class="st17" d="M0.7,51.6h75.3c-4,6.8-12.5,11.5-22.3,11.5c-3.2,0-6.2-0.5-9-1.4c-0.1,2.8-0.9,5.5-2.3,7.9
		H0.7V51.6z"/>
	<path id="XMLID_58_" class="st18" d="M0.7,55.2h72.6c-4.5,4.8-11.6,7.9-19.6,7.9c-3.2,0-6.2-0.5-9-1.4c-0.1,2.8-0.9,5.5-2.3,7.9
		H0.7V55.2z"/>
	<path id="XMLID_57_" class="st19" d="M42.4,69.6H0.7V58.8h68.3c-4.2,2.7-9.5,4.4-15.3,4.4c-3.2,0-6.2-0.5-9-1.4
		C44.6,64.6,43.7,67.2,42.4,69.6z"/>
	<path id="XMLID_81_" class="st20" d="M0.7,62.4h44c-0.2,2.6-1,5-2.3,7.3H0.7V62.4L0.7,62.4z M46.9,62.4h13.6
		c-2.2,0.5-4.4,0.8-6.8,0.8C51.3,63.1,49,62.9,46.9,62.4z"/>
	<path id="XMLID_54_" class="st21" d="M0.7,65.9H44c-0.4,1.3-0.9,2.5-1.6,3.7H0.7V65.9z"/>
	<path id="XMLID_53_" class="st22" d="M0.7,69.5h41.8c0,0,0,0.1-0.1,0.1L0.7,69.5L0.7,69.5z"/>
</g>
</svg>
