<?xml version="1.0" encoding="utf-8"?>
<!-- Generator: Adobe Illustrator 19.0.0, SVG Export Plug-In . SVG Version: 6.00 Build 0)  -->
<svg version="1.1" id="Capa_1" xmlns="http://www.w3.org/2000/svg" xmlns:xlink="http://www.w3.org/1999/xlink" x="0px" y="0px"
	 viewBox="0 0 79.6 70.5" style="enable-background:new 0 0 79.6 70.5;" xml:space="preserve">
<style type="text/css">
	.st0{fill-rule:evenodd;clip-rule:evenodd;fill:#FFFFFF;}
	.st1{fill-rule:evenodd;clip-rule:evenodd;fill:#FEFEFF;}
	.st2{fill-rule:evenodd;clip-rule:evenodd;fill:#FBFDFE;}
	.st3{fill-rule:evenodd;clip-rule:evenodd;fill:#F9FBFD;}
	.st4{fill-rule:evenodd;clip-rule:evenodd;fill:#F6F8FB;}
	.st5{fill-rule:evenodd;clip-rule:evenodd;fill:#F4F7FA;}
	.st6{fill-rule:evenodd;clip-rule:evenodd;fill:#F0F4FA;}
	.st7{fill-rule:evenodd;clip-rule:evenodd;fill:#EEF3F9;}
	.st8{fill-rule:evenodd;clip-rule:evenodd;fill:#ECF1F7;}
	.st9{fill-rule:evenodd;clip-rule:evenodd;fill:#EAEFF6;}
	.st10{fill-rule:evenodd;clip-rule:evenodd;fill:#E7EEF4;}
	.st11{fill-rule:evenodd;clip-rule:evenodd;fill:#E5EBF3;}
	.st12{fill-rule:evenodd;clip-rule:evenodd;fill:#E3E9F2;}
	.st13{fill-rule:evenodd;clip-rule:evenodd;fill:#E0E8F1;}
	.st14{fill-rule:evenodd;clip-rule:evenodd;fill:#DDE6EF;}
	.st15{fill-rule:evenodd;clip-rule:evenodd;fill:#DBE4EE;}
	.st16{fill-rule:evenodd;clip-rule:evenodd;fill:#D9E2ED;}
	.st17{fill-rule:evenodd;clip-rule:evenodd;fill:#D7E0EC;}
	.st18{fill-rule:evenodd;clip-rule:evenodd;fill:#D4DEEB;}
	.st19{fill-rule:evenodd;clip-rule:evenodd;fill:#D2DDEA;}
	.st20{fill-rule:evenodd;clip-rule:evenodd;fill:#D0DBE9;}
	.st21{fill-rule:evenodd;clip-rule:evenodd;fill:#CEDAE7;}
	.st22{fill-rule:evenodd;clip-rule:evenodd;fill:#CBD8E6;}
	.st23{fill-rule:evenodd;clip-rule:evenodd;fill:#C9D6E6;}
	.st24{fill-rule:evenodd;clip-rule:evenodd;fill:#C6D5E4;}
</style>
<g id="XMLID_107_">
	<path id="XMLID_105_" class="st0" d="M78.1,22H8.4c3.4-2.3,7.8-3.7,12.5-3.7c1.3,0,2.5,0.1,3.8,0.3c-0.1-0.6-0.2-1.2-0.2-1.8
		c0-7.3,7.2-13.3,16.1-13.3c6.4,0,12,3.1,14.6,7.6c7.8,0.6,14.5,4.5,17.9,10c0.4,0,0.7,0,1.1,0c1.3,0,2.6,0.1,3.8,0.3V22z"/>
	<path id="XMLID_104_" class="st1" d="M78.1,24.9H5.1c3.6-4,9.3-6.6,15.8-6.6c1.3,0,2.5,0.1,3.8,0.3c-0.1-0.6-0.2-1.2-0.2-1.8
		c0-7.3,7.2-13.3,16.1-13.3c6.4,0,12,3.1,14.6,7.6c7.8,0.6,14.5,4.5,17.9,10c0.4,0,0.7,0,1.1,0c1.3,0,2.6,0.1,3.8,0.3V24.9z"/>
	<path id="XMLID_103_" class="st2" d="M78.1,27.7h-75c3.1-5.6,9.9-9.4,17.9-9.4c1.3,0,2.5,0.1,3.8,0.3c-0.1-0.6-0.2-1.2-0.2-1.8
		c0-7.3,7.2-13.3,16.1-13.3c6.4,0,12,3.1,14.6,7.6c7.8,0.6,14.5,4.5,17.9,10c0.4,0,0.7,0,1.1,0c1.3,0,2.6,0.1,3.8,0.3V27.7z"/>
	<path id="XMLID_102_" class="st3" d="M34.4,4.5h12.3c3.7,1.3,6.7,3.7,8.4,6.6c7.8,0.6,14.5,4.5,17.9,10c0.4,0,0.7,0,1.1,0
		c1.3,0,2.6,0.1,3.8,0.3v9.1H1.8c2.1-7.1,9.9-12.3,19.1-12.3c1.3,0,2.5,0.1,3.8,0.3c-0.1-0.6-0.2-1.2-0.2-1.8
		C24.5,11.2,28.6,6.5,34.4,4.5z"/>
	<path id="XMLID_101_" class="st4" d="M29.3,7.3h22.7c1.3,1.1,2.4,2.4,3.2,3.8c7.8,0.6,14.5,4.5,17.9,10c0.4,0,0.7,0,1.1,0
		c1.3,0,2.6,0.1,3.8,0.3v12H1.3C2,25,10.5,18.3,20.9,18.3c1.3,0,2.5,0.1,3.8,0.3c-0.1-0.6-0.2-1.2-0.2-1.8
		C24.5,13.1,26.3,9.7,29.3,7.3z"/>
	<path id="XMLID_100_" class="st5" d="M26.6,10.2h28c0.2,0.3,0.4,0.6,0.6,0.9c7.8,0.6,14.5,4.5,17.9,10c0.4,0,0.7,0,1.1,0
		c1.3,0,2.6,0.1,3.8,0.3v14.8H1.4c-0.1-0.6-0.1-1.2-0.1-1.8c0-9,8.8-16.2,19.7-16.2c1.3,0,2.5,0.1,3.8,0.3c-0.1-0.6-0.2-1.2-0.2-1.8
		C24.5,14.3,25.3,12.1,26.6,10.2z"/>
	<path id="XMLID_99_" class="st6" d="M25.2,13h38.1c4.2,1.8,7.7,4.6,9.9,8.1c0.4,0,0.7,0,1.1,0c1.3,0,2.6,0.1,3.8,0.3v17.7h-76
		c-0.5-1.5-0.8-3-0.8-4.6c0-9,8.8-16.2,19.7-16.2c1.3,0,2.5,0.1,3.8,0.3c-0.1-0.6-0.2-1.2-0.2-1.8C24.5,15.4,24.8,14.2,25.2,13z"/>
	<path id="XMLID_98_" class="st7" d="M24.6,15.9h43.7c2,1.5,3.6,3.3,4.9,5.3c0.4,0,0.7,0,1.1,0c1.3,0,2.6,0.1,3.8,0.3V42H3.5
		c-1.4-2.2-2.2-4.8-2.2-7.5c0-9,8.8-16.2,19.7-16.2c1.3,0,2.5,0.1,3.8,0.3c-0.1-0.6-0.2-1.2-0.2-1.8C24.5,16.4,24.5,16.2,24.6,15.9z
		"/>
	<path id="XMLID_97_" class="st8" d="M16.3,18.7h55c0.7,0.8,1.3,1.6,1.8,2.4c0.4,0,0.7,0,1.1,0c1.3,0,2.6,0.1,3.8,0.3v23.4H5.7
		C2.9,42,1.3,38.4,1.3,34.5C1.3,26.9,7.7,20.5,16.3,18.7z"/>
	<path id="XMLID_96_" class="st9" d="M9,21.6h69v26.1H9.4c-4.9-2.9-8.2-7.7-8.2-13.2C1.3,29.2,4.3,24.6,9,21.6z"/>
	<path id="XMLID_95_" class="st10" d="M5.5,24.4h72.6v26.1H27.8c0-0.3,0.1-0.6,0.1-0.8c-1.2,0.4-2.4,0.7-3.7,0.8h-6.5
		c-9.3-1.3-16.4-8-16.4-16C1.3,30.7,2.8,27.2,5.5,24.4z"/>
	<path id="XMLID_94_" class="st11" d="M3.3,27.3h74.8v26c-0.2,0-0.5,0.1-0.7,0.1h-6.2c-1.4-0.2-2.7-0.5-4-0.9c0,0.3,0,0.6-0.1,0.9
		H27.8c-0.1-0.5-0.1-1-0.1-1.5c0-0.7,0.1-1.4,0.2-2.2c-2.2,0.7-4.5,1.1-7,1.1c-10.9,0-19.7-7.3-19.7-16.2C1.3,31.9,2,29.5,3.3,27.3z
		"/>
	<path id="XMLID_93_" class="st12" d="M2,30.1h76.1v23.1c-1.2,0.2-2.5,0.3-3.8,0.3c-2.5,0-4.9-0.4-7.1-1.1c-0.1,1.3-0.3,2.6-0.7,3.8
		H28.5c-0.5-1.4-0.7-2.9-0.7-4.4c0-0.7,0.1-1.4,0.2-2.2c-2.2,0.7-4.5,1.1-7,1.1c-10.9,0-19.7-7.3-19.7-16.2C1.3,33,1.5,31.5,2,30.1z
		"/>
	<path id="XMLID_92_" class="st13" d="M1.3,33h76.7v20.3c-1.2,0.2-2.5,0.3-3.8,0.3c-2.5,0-4.9-0.4-7.1-1.1c-0.1,2.4-0.8,4.6-2,6.6
		H29.8c-1.3-2.2-2.1-4.6-2.1-7.2c0-0.7,0.1-1.4,0.2-2.2c-2.2,0.7-4.5,1.1-7,1.1c-10.9,0-19.7-7.3-19.7-16.2C1.3,34,1.3,33.5,1.3,33z
		"/>
	<path id="XMLID_91_" class="st14" d="M1.3,35.9h76.7v17.4c-1.2,0.2-2.5,0.3-3.8,0.3c-2.5,0-4.9-0.4-7.1-1.1
		c-0.2,3.6-1.7,6.8-4.2,9.5H32c-2.7-2.8-4.3-6.3-4.3-10.1c0-0.7,0.1-1.4,0.2-2.2c-2.2,0.7-4.5,1.1-7,1.1
		C10.6,50.7,2.1,44.2,1.3,35.9z"/>
	<path id="XMLID_90_" class="st15" d="M1.9,38.7h76.1v14.6c-1.2,0.2-2.5,0.3-3.8,0.3c-2.5,0-4.9-0.4-7.1-1.1
		c-0.2,5-3.2,9.5-7.8,12.3H35.5c-4.7-3-7.8-7.7-7.8-12.9c0-0.7,0.1-1.4,0.2-2.2c-2.2,0.7-4.5,1.1-7,1.1C11.8,50.7,4.2,45.6,1.9,38.7
		z"/>
	<path id="XMLID_89_" class="st16" d="M3.2,41.6h74.9v11.7c-1.2,0.2-2.5,0.3-3.8,0.3c-2.5,0-4.9-0.4-7.1-1.1
		c-0.3,6.7-5.5,12.3-12.7,14.6H40.5c-7.4-2.3-12.7-8.2-12.7-15.2c0-0.7,0.1-1.4,0.2-2.2c-2.2,0.7-4.5,1.1-7,1.1
		C13.1,50.7,6.4,47,3.2,41.6z"/>
	<path id="XMLID_88_" class="st17" d="M5.3,44.4h72.7v8.9c-1.2,0.2-2.5,0.3-3.8,0.3c-2.5,0-4.9-0.4-7.1-1.1
		c-0.3,6.7-5.5,12.3-12.7,14.6H40.5c-7.4-2.3-12.7-8.2-12.7-15.2c0-0.7,0.1-1.4,0.2-2.2c-2.2,0.7-4.5,1.1-7,1.1
		C14.6,50.7,8.9,48.3,5.3,44.4z"/>
	<path id="XMLID_87_" class="st18" d="M8.8,47.3h69.3v6c-1.2,0.2-2.5,0.3-3.8,0.3c-2.5,0-4.9-0.4-7.1-1.1
		c-0.3,6.7-5.5,12.3-12.7,14.6H40.5c-7.4-2.3-12.7-8.2-12.7-15.2c0-0.7,0.1-1.4,0.2-2.2c-2.2,0.7-4.5,1.1-7,1.1
		C16.3,50.7,12.1,49.4,8.8,47.3z"/>
	<path id="XMLID_115_" class="st19" d="M15.5,50.1h10.9c-1.7,0.4-3.6,0.6-5.5,0.6C19,50.7,17.2,50.5,15.5,50.1L15.5,50.1z
		 M78.1,50.1v3.2c-1.2,0.2-2.5,0.3-3.8,0.3c-2.5,0-4.9-0.4-7.1-1.1c-0.3,6.7-5.5,12.3-12.7,14.6H40.5c-7.4-2.3-12.7-8.2-12.7-15.2
		c0-0.6,0-1.2,0.1-1.7H78.1z"/>
	<path id="XMLID_112_" class="st20" d="M27.8,53H67c-0.5,6.5-5.6,11.9-12.7,14.1H40.5C33.4,64.9,28.3,59.4,27.8,53L27.8,53z
		 M78.1,53v0.3c-1.2,0.2-2.5,0.3-3.8,0.3c-1.9,0-3.7-0.2-5.4-0.6H78.1z"/>
	<path id="XMLID_82_" class="st21" d="M28.3,55.8h38.2C64.9,61,60.3,65.2,54.4,67H40.5C34.5,65.2,29.9,61,28.3,55.8z"/>
	<path id="XMLID_80_" class="st22" d="M29.6,58.7h35.7c-2.2,3.8-6.1,6.9-10.9,8.4H40.5C35.6,65.5,31.7,62.5,29.6,58.7z"/>
	<path id="XMLID_79_" class="st23" d="M31.6,61.5h31.6C61,64,57.9,65.9,54.4,67H40.5C36.9,65.9,33.8,64,31.6,61.5z"/>
	<path id="XMLID_77_" class="st24" d="M34.9,64.4h25c-1.7,1.1-3.5,2-5.6,2.7H40.5C38.4,66.4,36.5,65.5,34.9,64.4z"/>
</g>
</svg>
