<?xml version="1.0" encoding="utf-8"?>
<!-- Generator: Adobe Illustrator 19.0.0, SVG Export Plug-In . SVG Version: 6.00 Build 0)  -->
<svg version="1.1" id="Capa_1" xmlns="http://www.w3.org/2000/svg" xmlns:xlink="http://www.w3.org/1999/xlink" x="0px" y="0px"
	 viewBox="0 0 112 70.5" style="enable-background:new 0 0 112 70.5;" xml:space="preserve">
<style type="text/css">
	.st0{display:none;}
	.st1{display:inline;fill-rule:evenodd;clip-rule:evenodd;fill:#FFFFFF;}
	.st2{display:inline;fill-rule:evenodd;clip-rule:evenodd;fill:#FEFEFF;}
	.st3{display:inline;fill-rule:evenodd;clip-rule:evenodd;fill:#FBFDFE;}
	.st4{display:inline;fill-rule:evenodd;clip-rule:evenodd;fill:#F9FBFD;}
	.st5{display:inline;fill-rule:evenodd;clip-rule:evenodd;fill:#F6F8FB;}
	.st6{display:inline;fill-rule:evenodd;clip-rule:evenodd;fill:#F4F7FA;}
	.st7{display:inline;fill-rule:evenodd;clip-rule:evenodd;fill:#F0F4FA;}
	.st8{display:inline;fill-rule:evenodd;clip-rule:evenodd;fill:#EEF3F9;}
	.st9{display:inline;fill-rule:evenodd;clip-rule:evenodd;fill:#ECF1F7;}
	.st10{display:inline;fill-rule:evenodd;clip-rule:evenodd;fill:#EAEFF6;}
	.st11{display:inline;fill-rule:evenodd;clip-rule:evenodd;fill:#E7EEF4;}
	.st12{display:inline;fill-rule:evenodd;clip-rule:evenodd;fill:#E5EBF3;}
	.st13{display:inline;fill-rule:evenodd;clip-rule:evenodd;fill:#E3E9F2;}
	.st14{display:inline;fill-rule:evenodd;clip-rule:evenodd;fill:#E0E8F1;}
	.st15{display:inline;fill-rule:evenodd;clip-rule:evenodd;fill:#DDE6EF;}
	.st16{display:inline;fill-rule:evenodd;clip-rule:evenodd;fill:#DBE4EE;}
	.st17{display:inline;fill-rule:evenodd;clip-rule:evenodd;fill:#D9E2ED;}
	.st18{display:inline;fill-rule:evenodd;clip-rule:evenodd;fill:#D7E0EC;}
	.st19{display:inline;fill-rule:evenodd;clip-rule:evenodd;fill:#D4DEEB;}
	.st20{display:inline;fill-rule:evenodd;clip-rule:evenodd;fill:#D2DDEA;}
	.st21{display:inline;fill-rule:evenodd;clip-rule:evenodd;fill:#D0DBE9;}
	.st22{display:inline;fill-rule:evenodd;clip-rule:evenodd;fill:#CEDAE7;}
	.st23{display:inline;fill-rule:evenodd;clip-rule:evenodd;fill:#CBD8E6;}
	.st24{display:inline;fill-rule:evenodd;clip-rule:evenodd;fill:#C9D6E6;}
	.st25{display:inline;fill-rule:evenodd;clip-rule:evenodd;fill:#C6D5E4;}
	.st26{display:inline;fill-rule:evenodd;clip-rule:evenodd;fill:#C4D3E3;}
	.st27{fill-rule:evenodd;clip-rule:evenodd;fill:#FFFFFF;}
	.st28{fill-rule:evenodd;clip-rule:evenodd;fill:#FEFEFF;}
	.st29{fill-rule:evenodd;clip-rule:evenodd;fill:#FBFDFE;}
	.st30{fill-rule:evenodd;clip-rule:evenodd;fill:#F9FBFD;}
	.st31{fill-rule:evenodd;clip-rule:evenodd;fill:#F6F8FB;}
	.st32{fill-rule:evenodd;clip-rule:evenodd;fill:#F4F7FA;}
	.st33{fill-rule:evenodd;clip-rule:evenodd;fill:#F0F4FA;}
	.st34{fill-rule:evenodd;clip-rule:evenodd;fill:#EEF3F9;}
	.st35{fill-rule:evenodd;clip-rule:evenodd;fill:#ECF1F7;}
	.st36{fill-rule:evenodd;clip-rule:evenodd;fill:#EAEFF6;}
	.st37{fill-rule:evenodd;clip-rule:evenodd;fill:#E7EEF4;}
	.st38{fill-rule:evenodd;clip-rule:evenodd;fill:#E5EBF3;}
	.st39{fill-rule:evenodd;clip-rule:evenodd;fill:#E3E9F2;}
	.st40{fill-rule:evenodd;clip-rule:evenodd;fill:#E0E8F1;}
	.st41{fill-rule:evenodd;clip-rule:evenodd;fill:#DDE6EF;}
</style>
<g id="XMLID_282_">
	<g id="XMLID_526_" class="st0">
		<path id="XMLID_280_" class="st1" d="M-3.6-135.4h-164.1c7.7-4.4,17.7-7,28.5-7c2.9,0,5.8,0.2,8.5,0.6c-0.2-1.1-0.4-2.3-0.4-3.5
			c0-13.7,16.3-24.8,36.5-24.8c14.6,0,27.3,5.9,33.1,14.3c17.8,1.1,33,8.4,40.8,18.8c0.8,0,1.6,0,2.5,0
			C-13.1-137-8.1-136.4-3.6-135.4z"/>
		<path id="XMLID_279_" class="st2" d="M10.4-130h-185.4c8.1-7.5,21.2-12.3,35.9-12.3c2.9,0,5.8,0.2,8.5,0.6
			c-0.2-1.1-0.4-2.3-0.4-3.5c0-13.7,16.3-24.8,36.5-24.8c14.6,0,27.3,5.9,33.1,14.3c17.8,1.1,33,8.4,40.8,18.8c0.8,0,1.6,0,2.5,0
			C-7.3-137,2.6-134.4,10.4-130z"/>
		<path id="XMLID_278_" class="st3" d="M17.8-124.7h-197.5c7.1-10.4,22.6-17.6,40.6-17.6c2.9,0,5.8,0.2,8.5,0.6
			c-0.2-1.1-0.4-2.3-0.4-3.5c0-13.7,16.3-24.8,36.5-24.8c14.6,0,27.3,5.9,33.1,14.3c17.8,1.1,33,8.4,40.8,18.8c0.8,0,1.6,0,2.5,0
			C-3.4-137,9.6-132.2,17.8-124.7z"/>
		<path id="XMLID_277_" class="st4" d="M-108.5-168.1h28c8.4,2.4,15.2,6.8,19.1,12.4c17.8,1.1,33,8.4,40.8,18.8c0.8,0,1.6,0,2.5,0
			c18,0,33.5,7.2,40.6,17.7h-204.9c4.9-13.2,22.4-23,43.3-23c2.9,0,5.8,0.2,8.5,0.6c-0.2-1.1-0.4-2.3-0.4-3.5
			C-131-155.5-121.7-164.4-108.5-168.1z"/>
		<path id="XMLID_276_" class="st5" d="M-120.2-162.8h51.5c3,2,5.5,4.4,7.3,7.1c17.8,1.1,33,8.4,40.8,18.8c0.8,0,1.6,0,2.5,0
			c20.9,0,38.5,9.8,43.4,23h-208.9c1.6-15.8,20.9-28.3,44.6-28.3c2.9,0,5.8,0.2,8.5,0.6c-0.2-1.1-0.4-2.3-0.4-3.5
			C-131-152.1-126.9-158.3-120.2-162.8z"/>
		<path id="XMLID_275_" class="st6" d="M-126.2-157.5h63.5c0.5,0.6,0.9,1.1,1.3,1.7c17.8,1.1,33,8.4,40.8,18.8c0.8,0,1.6,0,2.5,0
			c23.7,0,43,12.5,44.6,28.3h-210c-0.2-1.1-0.3-2.2-0.3-3.3c0-16.8,20-30.4,44.7-30.4c2.9,0,5.8,0.2,8.5,0.6
			c-0.2-1.1-0.4-2.3-0.4-3.5C-131-149.7-129.3-153.9-126.2-157.5z"/>
		<path id="XMLID_274_" class="st7" d="M-129.5-152.1h86.5c9.6,3.3,17.5,8.6,22.4,15.2c0.8,0,1.6,0,2.5,0
			c24.7,0,44.7,13.6,44.7,30.4c0,1.1-0.1,2.2-0.3,3.3H-182c-1.2-2.7-1.8-5.6-1.8-8.6c0-16.8,20-30.4,44.7-30.4
			c2.9,0,5.8,0.2,8.5,0.6c-0.2-1.1-0.4-2.3-0.4-3.5C-131-147.6-130.5-149.9-129.5-152.1z"/>
		<path id="XMLID_273_" class="st8" d="M-130.9-146.8h99.2c4.5,2.8,8.3,6.1,11.1,9.8c0.8,0,1.6,0,2.5,0c24.7,0,44.7,13.6,44.7,30.4
			c0,3-0.6,5.9-1.8,8.6h-203.5c-3.2-4.2-5-8.9-5-13.9c0-16.8,20-30.4,44.7-30.4c2.9,0,5.8,0.2,8.5,0.6c-0.2-1.1-0.4-2.3-0.4-3.5
			C-131-145.7-131-146.3-130.9-146.8z"/>
		<path id="XMLID_272_" class="st9" d="M-149.7-141.5h125c1.5,1.4,2.9,2.9,4.1,4.5c0.8,0,1.6,0,2.5,0c24.7,0,44.7,13.6,44.7,30.4
			c0,5-1.8,9.8-5,14h-195.2c-6.4-5.2-10.2-12-10.2-19.3C-183.8-126.3-169.3-138.2-149.7-141.5z"/>
		<path id="XMLID_271_" class="st10" d="M-166.2-136.1H-7.4c19.5,3.3,34,15.2,34,29.5c0,7.3-3.8,14.1-10.2,19.3h-181.6
			c-11.2-5.5-18.5-14.5-18.5-24.6C-183.8-121.8-176.9-130.6-166.2-136.1z"/>
		<path id="XMLID_270_" class="st11" d="M-174.2-130.8H8.9c10.7,5.5,17.6,14.3,17.6,24.1c0,10.1-7.3,19.1-18.6,24.6h-131.5
			c0.1-0.5,0.1-1,0.2-1.6c-2.7,0.7-5.6,1.2-8.5,1.6h-14.7c-21.2-2.4-37.3-14.9-37.3-30C-183.8-119.1-180.2-125.6-174.2-130.8z"/>
		<path id="XMLID_269_" class="st12" d="M-179.2-125.5H16.9c6,5.2,9.6,11.7,9.6,18.8c0,15.1-16.3,27.7-37.6,30h-14.2
			c-3.2-0.3-6.2-0.9-9.1-1.7c0,0.6-0.1,1.1-0.2,1.7h-89c-0.1-0.9-0.2-1.9-0.2-2.9c0-1.4,0.1-2.7,0.4-4c-4.9,1.3-10.3,2-15.8,2
			c-24.7,0-44.7-13.6-44.7-30.4C-183.8-116.8-182.2-121.4-179.2-125.5z"/>
		<path id="XMLID_268_" class="st13" d="M-182.2-120.1H21.9c3,4.1,4.6,8.6,4.6,13.5c0,16.8-20,30.4-44.7,30.4
			c-5.7,0-11.2-0.7-16.2-2.1c-0.1,2.4-0.7,4.8-1.6,7h-86.1c-1.1-2.6-1.6-5.4-1.6-8.2c0-1.4,0.1-2.7,0.4-4c-4.9,1.3-10.3,2-15.8,2
			c-24.7,0-44.7-13.6-44.7-30.4C-183.8-114.8-183.3-117.5-182.2-120.1z"/>
		<path id="XMLID_267_" class="st14" d="M-183.6-114.8H24.9c1.1,2.6,1.6,5.3,1.6,8.1c0,16.8-20,30.4-44.7,30.4
			c-5.7,0-11.2-0.7-16.2-2.1c-0.2,4.4-1.9,8.6-4.6,12.3h-80c-3-4.1-4.7-8.7-4.7-13.5c0-1.4,0.1-2.7,0.4-4c-4.9,1.3-10.3,2-15.8,2
			c-24.7,0-44.7-13.6-44.7-30.4C-183.8-112.9-183.8-113.9-183.6-114.8z"/>
		<path id="XMLID_266_" class="st15" d="M-183.7-109.4h210c0.1,0.9,0.2,1.9,0.2,2.8c0,16.8-20,30.4-44.7,30.4
			c-5.7,0-11.2-0.7-16.2-2.1c-0.4,6.7-3.9,12.8-9.6,17.7h-70c-6.1-5.2-9.7-11.7-9.7-18.9c0-1.4,0.1-2.7,0.4-4
			c-4.9,1.3-10.3,2-15.8,2C-162.6-81.6-181.8-93.9-183.7-109.4z"/>
		<path id="XMLID_265_" class="st16" d="M-182.3-104.1H26.4C24.5-88.5,5.3-76.3-18.2-76.3c-5.7,0-11.2-0.7-16.2-2.1
			c-0.5,9.4-7.3,17.7-17.7,23h-54c-10.8-5.5-17.7-14.3-17.7-24.2c0-1.4,0.1-2.7,0.4-4c-4.9,1.3-10.3,2-15.8,2
			C-159.8-81.6-177.2-91.1-182.3-104.1z"/>
		<path id="XMLID_264_" class="st17" d="M-179.4-98.8H25c-5.1,13-22.5,22.5-43.2,22.5c-5.7,0-11.2-0.7-16.2-2.1
			C-35.2-64.5-49.5-53.1-68.6-50h-20.8c-19.7-3.2-34.3-15.2-34.3-29.5c0-1.4,0.1-2.7,0.4-4c-4.9,1.3-10.3,2-15.8,2
			C-156.9-81.6-172.2-88.6-179.4-98.8z"/>
		<path id="XMLID_263_" class="st18" d="M-174.6-93.4H22.1C14.9-83.3-0.4-76.3-18.2-76.3c-5.7,0-11.2-0.7-16.2-2.1
			C-35.3-62.1-54.9-49.2-79-49.2c-24.7,0-44.7-13.6-44.7-30.4c0-1.4,0.1-2.7,0.4-4c-4.9,1.3-10.3,2-15.8,2
			C-153.6-81.6-166.4-86.2-174.6-93.4z"/>
		<path id="XMLID_262_" class="st19" d="M-166.8-88.1h184c-8.2,7.2-21,11.8-35.4,11.8c-5.7,0-11.2-0.7-16.2-2.1
			C-35.3-62.1-54.9-49.2-79-49.2c-24.7,0-44.7-13.6-44.7-30.4c0-1.4,0.1-2.7,0.4-4c-4.9,1.3-10.3,2-15.8,2
			C-149.6-81.6-159.2-84-166.8-88.1z"/>
		<path id="XMLID_535_" class="st20" d="M-151.6-82.8h24.8c-3.9,0.8-8.1,1.2-12.4,1.2C-143.5-81.6-147.6-82-151.6-82.8L-151.6-82.8z
			 M-123.4-82.8H9.5c-7.6,4.1-17.2,6.5-27.6,6.5c-5.7,0-11.2-0.7-16.2-2.1C-35.3-62.1-54.9-49.2-79-49.2
			c-24.7,0-44.7-13.6-44.7-30.4C-123.7-80.6-123.6-81.7-123.4-82.8z"/>
		<path id="XMLID_532_" class="st21" d="M-123.6-77.4h89.1C-36-61.6-55.4-49.2-79-49.2C-102.7-49.2-122-61.6-123.6-77.4L-123.6-77.4
			z M-30.4-77.4h24.5c-3.9,0.8-8,1.2-12.3,1.2C-22.4-76.3-26.5-76.7-30.4-77.4z"/>
		<path id="XMLID_257_" class="st22" d="M-122.4-72.1h86.7C-40.6-58.9-58.1-49.2-79-49.2C-99.9-49.2-117.5-58.9-122.4-72.1z"/>
		<path id="XMLID_256_" class="st23" d="M-119.6-66.8h81.1C-45.6-56.4-61-49.2-79-49.2S-112.5-56.4-119.6-66.8z"/>
		<path id="XMLID_255_" class="st24" d="M-114.9-61.4h71.8C-51.3-54-64.3-49.2-79-49.2C-93.7-49.2-106.8-54-114.9-61.4z"/>
		<path id="XMLID_254_" class="st25" d="M-107.4-56.1h56.8c-7.7,4.3-17.6,6.9-28.4,6.9C-89.8-49.2-99.7-51.8-107.4-56.1z"/>
		<path id="XMLID_253_" class="st26" d="M-93.4-50.8h28.7c-4.5,1-9.3,1.6-14.3,1.6C-84-49.2-88.9-49.7-93.4-50.8z"/>
	</g>
	<g id="XMLID_499_" class="st0">
		<path id="XMLID_252_" class="st1" d="M-107.4-125.3H-243c5.1-1.4,10.6-2.2,16.5-2.2c4.8,0,9.4,0.5,13.7,1.5
			c-0.2-1.2-0.3-2.4-0.3-3.6c0-16.8,20-30.4,44.7-30.4s44.7,13.6,44.7,30.4c0,1.2-0.1,2.4-0.3,3.5c1.9-0.2,3.8-0.3,5.7-0.3
			C-114.6-126.4-110.9-126-107.4-125.3z"/>
		<path id="XMLID_251_" class="st2" d="M-93-120h-162.3c7.6-4.7,17.7-7.6,28.7-7.6c4.8,0,9.4,0.5,13.7,1.5c-0.2-1.2-0.3-2.4-0.3-3.6
			c0-16.8,20-30.4,44.7-30.4s44.7,13.6,44.7,30.4c0,1.2-0.1,2.4-0.3,3.5c1.9-0.2,3.8-0.3,5.7-0.3C-108.7-126.4-99.8-124-93-120z"/>
		<path id="XMLID_250_" class="st3" d="M-86-114.6h-176c7.6-7.8,20.7-12.9,35.5-12.9c4.8,0,9.4,0.5,13.7,1.5
			c-0.2-1.2-0.3-2.4-0.3-3.6c0-16.8,20-30.4,44.7-30.4s44.7,13.6,44.7,30.4c0,1.2-0.1,2.4-0.3,3.5c1.9-0.2,3.8-0.3,5.7-0.3
			C-104.9-126.4-93-121.7-86-114.6z"/>
		<path id="XMLID_249_" class="st4" d="M-184-158.1h31.1c17,4.3,29.1,15.4,29.1,28.5c0,1.2-0.1,2.4-0.3,3.5c1.9-0.2,3.8-0.3,5.7-0.3
			c16.6,0,30.8,7.1,36.4,17.1h-184.2c6.3-10.7,21.6-18.3,39.6-18.3c4.8,0,9.4,0.5,13.7,1.5c-0.2-1.2-0.3-2.4-0.3-3.6
			C-213.2-142.7-201-153.8-184-158.1z"/>
		<path id="XMLID_248_" class="st5" d="M-197.4-152.8h57.9c9.6,5.6,15.8,13.9,15.8,23.1c0,1.2-0.1,2.4-0.3,3.5
			c1.9-0.2,3.8-0.3,5.7-0.3c19.5,0,35.6,9.7,38.5,22.4h-188.5c3.7-13.4,21-23.6,41.9-23.6c4.8,0,9.4,0.5,13.7,1.5
			c-0.2-1.2-0.3-2.4-0.3-3.6C-213.2-138.9-207-147.2-197.4-152.8z"/>
		<path id="XMLID_247_" class="st6" d="M-204.7-147.4h72.4c5.3,5,8.5,11.2,8.5,17.8c0,1.2-0.1,2.4-0.3,3.5c1.9-0.2,3.8-0.3,5.7-0.3
			c21.5,0,39,11.9,39,26.5c0,0.4,0,0.9,0,1.3h-189.7c0-16,19.1-28.9,42.6-28.9c4.8,0,9.4,0.5,13.7,1.5c-0.2-1.2-0.3-2.4-0.3-3.6
			C-213.2-136.3-210-142.4-204.7-147.4z"/>
		<path id="XMLID_246_" class="st7" d="M-209.2-142.1h81.5c2.5,3.8,3.9,8,3.9,12.5c0,1.2-0.1,2.4-0.3,3.5c1.9-0.2,3.8-0.3,5.7-0.3
			c21.5,0,39,11.9,39,26.5c0,2.3-0.4,4.5-1.2,6.6h-187.8c-0.5-1.7-0.7-3.5-0.7-5.3c0-16,19.1-28.9,42.6-28.9c4.8,0,9.4,0.5,13.7,1.5
			c-0.2-1.2-0.3-2.4-0.3-3.6C-213.2-134.1-211.8-138.3-209.2-142.1z"/>
		<path id="XMLID_245_" class="st8" d="M-211.9-136.8h86.9c0.8,2.3,1.2,4.7,1.2,7.1c0,1.2-0.1,2.4-0.3,3.5c1.9-0.2,3.8-0.3,5.7-0.3
			c21.5,0,39,11.9,39,26.5c0,4.3-1.5,8.4-4.2,11.9h-182.6c-1.9-3.3-3-6.9-3-10.6c0-16,19.1-28.9,42.6-28.9c4.8,0,9.4,0.5,13.7,1.5
			c-0.2-1.2-0.3-2.4-0.3-3.6C-213.2-132.1-212.7-134.5-211.9-136.8z"/>
		<path id="XMLID_244_" class="st9" d="M-213.1-131.4h89.2c0.1,0.6,0.1,1.2,0.1,1.8c0,1.2-0.1,2.4-0.3,3.5c1.9-0.2,3.8-0.3,5.7-0.3
			c21.5,0,39,11.9,39,26.5c0,6.6-3.6,12.6-9.4,17.3h-173.2c-4.5-4.6-7.1-10.1-7.1-16c0-16,19.1-28.9,42.6-28.9
			c4.8,0,9.4,0.5,13.7,1.5c-0.2-1.2-0.3-2.4-0.3-3.6C-213.2-130.2-213.1-130.8-213.1-131.4z"/>
		<path id="XMLID_243_" class="st10" d="M-240-126.1h26.9l0.2,0.1l0-0.1h100.3c18.8,1.9,33.1,12.9,33.1,26.2
			c0,9.5-7.4,17.8-18.4,22.5c0,0,0,0.1,0,0.1h-157.5c-8.5-5.3-13.8-12.9-13.8-21.3C-269.1-111.4-256.9-122.3-240-126.1z"/>
		<path id="XMLID_242_" class="st11" d="M-254-120.8h159.6c9.1,4.8,14.9,12.4,14.9,20.8c0,9.5-7.4,17.8-18.4,22.5
			c-0.6,1.9-1.4,3.7-2.4,5.4h-142.9c-15.3-4.4-25.9-14.7-25.9-26.7C-269.1-107.5-263.2-115.4-254-120.8z"/>
		<path id="XMLID_241_" class="st12" d="M-261.2-115.4h174.4c4.6,4.4,7.4,9.7,7.4,15.5c0,9.5-7.4,17.8-18.4,22.5
			c-1.2,3.8-3.3,7.5-6.1,10.8h-121.6c0.3-1,0.7-2.1,1.1-3.1c-0.7,0-1.4,0-2.1,0c-23.5,0-42.6-13-42.6-28.9
			C-269.1-104.9-266.2-110.7-261.2-115.4z"/>
		<path id="XMLID_240_" class="st13" d="M-265.7-110.1h183.3c1.9,3.1,3,6.6,3,10.2c0,9.5-7.4,17.8-18.4,22.5
			c-1.9,6-6,11.5-11.7,16.1h-116.6c0-0.3,0-0.6,0-0.9c0-2.6,0.6-5.2,1.7-7.5c-0.7,0-1.4,0-2.1,0c-23.5,0-42.6-13-42.6-28.9
			C-269.1-102.7-267.9-106.6-265.7-110.1z"/>
		<path id="XMLID_239_" class="st14" d="M-268.2-104.7h188.1c0.4,1.6,0.7,3.2,0.7,4.8c0,9.5-7.4,17.8-18.4,22.5
			c-2.8,8.6-9.9,16.2-19.8,21.4H-225c-0.8-2-1.2-4.1-1.2-6.2c0-2.6,0.6-5.2,1.7-7.5c-0.7,0-1.4,0-2.1,0c-23.5,0-42.6-13-42.6-28.9
			C-269.1-100.7-268.8-102.8-268.2-104.7z"/>
		<path id="XMLID_238_" class="st15" d="M-269.1-99.4h189.7c-0.3,9.3-7.6,17.4-18.4,22c-3.9,12.2-16.6,22.2-33.3,26.8H-222
			c-2.7-3.4-4.2-7.4-4.2-11.5c0-2.6,0.6-5.2,1.7-7.5c-0.7,0-1.4,0-2.1,0c-23.5,0-42.6-13-42.6-28.9
			C-269.1-98.9-269.1-99.1-269.1-99.4z"/>
		<path id="XMLID_237_" class="st16" d="M-268.6-94.1h188.3c-2.3,7-8.8,13-17.5,16.7c-5.4,16.9-27.5,29.5-53.9,29.5
			c-2.6,0-5.2-0.1-7.7-0.4c-1.1,1.1-2.2,2.1-3.5,3h-53.5c-6.1-4.4-9.8-10.4-9.8-16.9c0-2.6,0.6-5.2,1.7-7.5c-0.7,0-1.4,0-2.1,0
			C-247.8-69.7-265.4-80.2-268.6-94.1z"/>
		<path id="XMLID_236_" class="st17" d="M-266.6-88.7H-83c-3.2,4.7-8.4,8.6-14.8,11.3c-5.4,16.9-27.5,29.5-53.9,29.5
			c-2.6,0-5.2-0.1-7.7-0.4c-3.5,3.5-8.3,6.4-14,8.3h-32.5c-12-4.1-20.2-12.5-20.2-22.2c0-2.6,0.6-5.2,1.7-7.5c-0.7,0-1.4,0-2.1,0
			C-245-69.7-260.7-77.6-266.6-88.7z"/>
		<path id="XMLID_235_" class="st18" d="M-262.8-83.4h174.9c-2.8,2.4-6.1,4.4-9.9,6c-5.4,16.9-27.5,29.5-53.9,29.5
			c-2.6,0-5.2-0.1-7.7-0.4c-6.6,6.6-17.7,10.9-30.3,10.9c-20.2,0-36.5-11.1-36.5-24.8c0-2.6,0.6-5.2,1.7-7.5c-0.7,0-1.4,0-2.1,0
			C-241.9-69.7-255.3-75.2-262.8-83.4z"/>
		<path id="XMLID_234_" class="st19" d="M-256.5-78.1h160.2c-0.5,0.2-1,0.5-1.5,0.7c-5.4,16.9-27.5,29.5-53.9,29.5
			c-2.6,0-5.2-0.1-7.7-0.4c-6.6,6.6-17.7,10.9-30.3,10.9c-20.2,0-36.5-11.1-36.5-24.8c0-2.6,0.6-5.2,1.7-7.5c-0.7,0-1.4,0-2.1,0
			C-238.2-69.7-248.8-72.9-256.5-78.1z"/>
		<path id="XMLID_233_" class="st20" d="M-245.6-72.7h145.8c-7.6,14.5-28,24.8-51.9,24.8c-2.6,0-5.2-0.1-7.7-0.4
			c-6.6,6.6-17.7,10.9-30.3,10.9c-20.2,0-36.5-11.1-36.5-24.8c0-2.6,0.6-5.2,1.7-7.5c-0.7,0-1.4,0-2.1,0
			C-233.4-69.7-239.9-70.8-245.6-72.7z"/>
		<path id="XMLID_232_" class="st21" d="M-225.4-67.4h122c-9.4,11.6-27.5,19.5-48.4,19.5c-2.6,0-5.2-0.1-7.7-0.4
			c-6.6,6.6-17.7,10.9-30.3,10.9c-20.2,0-36.5-11.1-36.5-24.8C-226.2-64-225.9-65.7-225.4-67.4z"/>
		<path id="XMLID_231_" class="st22" d="M-226.2-62.1h117.6c-10.1,8.6-25.7,14.1-43.1,14.1c-2.6,0-5.2-0.1-7.7-0.4
			c-6.6,6.6-17.7,10.9-30.3,10.9C-209.8-37.4-226.1-48.4-226.2-62.1z"/>
		<path id="XMLID_230_" class="st23" d="M-225.3-56.7h109.1c-9.6,5.5-22,8.8-35.5,8.8c-2.6,0-5.2-0.1-7.7-0.4
			c-6.6,6.6-17.7,10.9-30.3,10.9C-207.1-37.4-221.7-45.6-225.3-56.7z"/>
		<path id="XMLID_229_" class="st24" d="M-222.6-51.4h94.1c-7.1,2.2-14.9,3.5-23.2,3.5c-2.6,0-5.2-0.1-7.7-0.4
			c-6.6,6.6-17.7,10.9-30.3,10.9C-204.2-37.4-216.7-43.1-222.6-51.4z"/>
		<path id="XMLID_228_" class="st25" d="M-217.4-46.1h55.5c-6.7,5.3-16.7,8.7-27.8,8.7C-200.8-37.4-210.7-40.7-217.4-46.1z"/>
		<path id="XMLID_227_" class="st26" d="M-208-40.7h36.8c-5.4,2.1-11.7,3.4-18.4,3.4C-196.4-37.4-202.6-38.6-208-40.7z"/>
	</g>
	<g id="XMLID_468_" class="st0">
		<path id="XMLID_226_" class="st1" d="M-147.8-75h-164.1c4.6-1.1,9.5-1.7,14.6-1.7c0.8,0,1.7,0,2.5,0c7.8-10.3,23-17.6,40.8-18.8
			c5.8-8.4,18.4-14.3,33.1-14.3c20.2,0,36.5,11.1,36.5,24.8c0,1.2-0.1,2.3-0.4,3.5c2.8-0.4,5.6-0.6,8.5-0.6
			C-165.5-81.9-155.6-79.3-147.8-75z"/>
		<path id="XMLID_225_" class="st2" d="M-140.4-69.6h-179.3v-2.9c6.6-2.6,14.2-4.1,22.4-4.1c0.8,0,1.7,0,2.5,0
			c7.8-10.3,23-17.6,40.8-18.8c5.8-8.4,18.4-14.3,33.1-14.3c20.2,0,36.5,11.1,36.5,24.8c0,1.2-0.1,2.3-0.4,3.5
			c2.8-0.4,5.6-0.6,8.5-0.6C-161.6-81.9-148.5-77.1-140.4-69.6z"/>
		<path id="XMLID_224_" class="st3" d="M-135.7-64.3h-184v-8.2c6.6-2.6,14.2-4.1,22.4-4.1c0.8,0,1.7,0,2.5,0
			c7.8-10.3,23-17.6,40.8-18.8c5.8-8.4,18.4-14.3,33.1-14.3c20.2,0,36.5,11.1,36.5,24.8c0,1.2-0.1,2.3-0.4,3.5
			c2.8-0.4,5.6-0.6,8.5-0.6C-158.3-81.9-142.8-74.7-135.7-64.3z"/>
		<path id="XMLID_223_" class="st4" d="M-235-107.7h28c13.2,3.7,22.5,12.6,22.5,22.9c0,1.2-0.1,2.3-0.4,3.5c2.8-0.4,5.6-0.6,8.5-0.6
			c20.9,0,38.5,9.8,43.3,23h-186.7v-13.6c6.6-2.6,14.2-4.1,22.4-4.1c0.8,0,1.7,0,2.5,0c7.8-10.3,23-17.6,40.8-18.8
			C-250.2-100.9-243.4-105.4-235-107.7z"/>
		<path id="XMLID_222_" class="st5" d="M-246.7-102.4h51.5c6.6,4.5,10.8,10.7,10.8,17.6c0,1.2-0.1,2.3-0.4,3.5
			c2.8-0.4,5.6-0.6,8.5-0.6c23.7,0,43,12.5,44.6,28.3h-188v-18.9c6.6-2.6,14.2-4.1,22.4-4.1c0.8,0,1.7,0,2.5,0
			c7.8-10.3,23-17.6,40.8-18.8C-252.2-98-249.7-100.4-246.7-102.4z"/>
		<path id="XMLID_221_" class="st6" d="M-252.7-97.1h63.5c3,3.6,4.8,7.8,4.8,12.3c0,1.2-0.1,2.3-0.4,3.5c2.8-0.4,5.6-0.6,8.5-0.6
			c24.7,0,44.7,13.6,44.7,30.4c0,1.1-0.1,2.2-0.3,3.3h-187.8v-24.2c6.6-2.6,14.2-4.1,22.4-4.1c0.8,0,1.7,0,2.5,0
			c7.8-10.3,23-17.6,40.8-18.8C-253.7-95.9-253.2-96.5-252.7-97.1z"/>
		<path id="XMLID_220_" class="st7" d="M-272.4-91.7h86.5c0.9,2.2,1.4,4.5,1.4,6.9c0,1.2-0.1,2.3-0.4,3.5c2.8-0.4,5.6-0.6,8.5-0.6
			c24.7,0,44.7,13.6,44.7,30.4c0,3-0.6,5.9-1.8,8.6h-186.3v-29.6c6.6-2.6,14.2-4.1,22.4-4.1c0.8,0,1.7,0,2.5,0
			C-289.9-83.1-282-88.4-272.4-91.7z"/>
		<path id="XMLID_219_" class="st8" d="M-283.7-86.4h99.2c0,0.5,0.1,1.1,0.1,1.6c0,1.2-0.1,2.3-0.4,3.5c2.8-0.4,5.6-0.6,8.5-0.6
			c24.7,0,44.7,13.6,44.7,30.4c0,5-1.8,9.8-5,13.9h-183.1v-34.9c6.6-2.6,14.2-4.1,22.4-4.1c0.8,0,1.7,0,2.5,0
			C-292-80.3-288.2-83.6-283.7-86.4z"/>
		<path id="XMLID_218_" class="st9" d="M-290.8-81.1h125c19.6,3.2,34.1,15.2,34.1,29.5c0,7.3-3.8,14-10.2,19.3h-177.9v-40.3
			c6.6-2.6,14.2-4.1,22.4-4.1c0.8,0,1.7,0,2.5,0C-293.6-78.1-292.3-79.6-290.8-81.1z"/>
		<path id="XMLID_217_" class="st10" d="M-308-75.7h158.8c10.7,5.5,17.6,14.3,17.6,24.2c0,10.1-7.3,19.1-18.5,24.6h-169.6v-45.6
			C-316.1-73.9-312.2-75-308-75.7z"/>
		<path id="XMLID_216_" class="st11" d="M-319.7-70.4h178.4c6,5.2,9.6,11.7,9.6,18.8c0,15.1-16.2,27.6-37.3,30h-14.7
			c-2.9-0.3-5.8-0.9-8.5-1.6c0.1,0.5,0.2,1,0.2,1.6h-127.8V-70.4z"/>
		<path id="XMLID_215_" class="st12" d="M-319.7-65.1h183.4c3,4.1,4.7,8.7,4.7,13.5c0,16.8-20,30.4-44.7,30.4
			c-5.6,0-10.9-0.7-15.8-2c0.3,1.3,0.4,2.7,0.4,4c0,1-0.1,1.9-0.2,2.9h-89c-0.1-0.6-0.1-1.1-0.2-1.7c-2.9,0.8-5.9,1.3-9.1,1.7h-14.2
			c-5.5-0.6-10.7-1.9-15.3-3.7V-65.1z"/>
		<path id="XMLID_214_" class="st13" d="M-319.7-59.7h186.4c1.1,2.6,1.6,5.3,1.6,8.2c0,16.8-20,30.4-44.7,30.4
			c-5.6,0-10.9-0.7-15.8-2c0.3,1.3,0.4,2.7,0.4,4c0,2.8-0.6,5.6-1.6,8.2h-86.1c-0.9-2.2-1.5-4.6-1.6-7c-5,1.3-10.5,2.1-16.2,2.1
			c-8.2,0-15.8-1.5-22.4-4.1V-59.7z"/>
		<path id="XMLID_213_" class="st14" d="M-319.7-54.4h187.9c0.1,0.9,0.2,1.9,0.2,2.8c0,16.8-20,30.4-44.7,30.4
			c-5.6,0-10.9-0.7-15.8-2c0.3,1.3,0.4,2.7,0.4,4c0,4.9-1.7,9.5-4.7,13.5h-80c-2.7-3.7-4.4-7.9-4.6-12.3c-5,1.3-10.5,2.1-16.2,2.1
			c-8.2,0-15.8-1.5-22.4-4.1V-54.4z"/>
		<path id="XMLID_212_" class="st15" d="M-319.7-49h187.9c-1.9,15.6-21.1,27.9-44.5,27.9c-5.6,0-10.9-0.7-15.8-2
			c0.3,1.3,0.4,2.7,0.4,4c0,7.1-3.6,13.7-9.7,18.9h-70c-5.7-4.9-9.3-11-9.6-17.7c-5,1.3-10.5,2.1-16.2,2.1c-8.2,0-15.8-1.5-22.4-4.1
			V-49z"/>
		<path id="XMLID_211_" class="st16" d="M-319.7-43.7h186.6c-5.1,13-22.5,22.5-43.2,22.5c-5.6,0-10.9-0.7-15.8-2
			c0.3,1.3,0.4,2.7,0.4,4c0,9.9-6.9,18.7-17.7,24.2h-54c-10.3-5.3-17.1-13.6-17.7-23c-5,1.3-10.5,2.1-16.2,2.1
			c-8.2,0-15.8-1.5-22.4-4.1V-43.7z"/>
		<path id="XMLID_210_" class="st17" d="M-319.7-38.4H-136c-7.2,10.2-22.5,17.2-40.3,17.2c-5.6,0-10.9-0.7-15.8-2
			c0.3,1.3,0.4,2.7,0.4,4c0,14.3-14.6,26.4-34.3,29.5h-20.8c-19.1-3.1-33.5-14.5-34.3-28.4c-5,1.3-10.5,2.1-16.2,2.1
			c-8.2,0-15.8-1.5-22.4-4.1V-38.4z"/>
		<path id="XMLID_209_" class="st18" d="M-319.7-33h178.8c-8.2,7.2-21,11.9-35.4,11.9c-5.6,0-10.9-0.7-15.8-2c0.3,1.3,0.4,2.7,0.4,4
			c0,16.8-20,30.4-44.7,30.4c-24.1,0-43.7-13-44.6-29.2c-5,1.3-10.5,2.1-16.2,2.1c-8.2,0-15.8-1.5-22.4-4.1V-33z"/>
		<path id="XMLID_208_" class="st19" d="M-319.7-27.7h171.1c-7.6,4.1-17.2,6.5-27.7,6.5c-5.6,0-10.9-0.7-15.8-2
			c0.3,1.3,0.4,2.7,0.4,4c0,16.8-20,30.4-44.7,30.4c-24.1,0-43.7-13-44.6-29.2c-5,1.3-10.5,2.1-16.2,2.1c-8.2,0-15.8-1.5-22.4-4.1
			V-27.7z"/>
		<path id="XMLID_477_" class="st20" d="M-319.7-22.4H-192c0.2,1.1,0.3,2.2,0.3,3.2c0,16.8-20,30.4-44.7,30.4
			c-24.1,0-43.7-13-44.6-29.2c-5,1.3-10.5,2.1-16.2,2.1c-8.2,0-15.8-1.5-22.4-4.1V-22.4L-319.7-22.4z M-188.7-22.4h24.8
			c-3.9,0.8-8.1,1.2-12.4,1.2C-180.6-21.2-184.8-21.6-188.7-22.4z"/>
		<path id="XMLID_474_" class="st21" d="M-309.5-17h24.5c-3.9,0.8-8,1.2-12.3,1.2C-301.5-15.9-305.6-16.3-309.5-17L-309.5-17z
			 M-281-17h89.1c-1.6,15.8-20.9,28.3-44.6,28.3C-260.1,11.2-279.4-1.2-281-17z"/>
		<path id="XMLID_203_" class="st22" d="M-279.8-11.7h86.7c-4.9,13.2-22.4,22.9-43.3,22.9C-257.3,11.2-274.9,1.5-279.8-11.7z"/>
		<path id="XMLID_202_" class="st23" d="M-277-6.4h81.1C-203,4-218.5,11.2-236.4,11.2C-254.4,11.2-269.9,4-277-6.4z"/>
		<path id="XMLID_201_" class="st24" d="M-272.3-1h71.8c-8.1,7.4-21.2,12.3-35.9,12.3C-251.1,11.2-264.2,6.4-272.3-1z"/>
		<path id="XMLID_200_" class="st25" d="M-264.9,4.3h56.8c-7.7,4.3-17.6,6.9-28.4,6.9C-247.2,11.2-257.1,8.6-264.9,4.3z"/>
		<path id="XMLID_199_" class="st26" d="M-250.8,9.6h28.7c-4.5,1-9.3,1.6-14.4,1.6C-241.5,11.2-246.3,10.7-250.8,9.6z"/>
	</g>
	<g id="XMLID_441_" class="st0">
		<path id="XMLID_198_" class="st1" d="M13.1-96h-135.6c3.5-0.7,7.2-1.1,11-1.1c1.9,0,3.9,0.1,5.7,0.3c-0.2-1.2-0.3-2.3-0.3-3.5
			c0-16.8,20-30.4,44.7-30.4c24.7,0,44.7,13.6,44.7,30.4c0,1.2-0.1,2.4-0.3,3.6c4.3-1,8.9-1.5,13.7-1.5C2.4-98.3,8-97.5,13.1-96z"/>
		<path id="XMLID_197_" class="st2" d="M25.3-90.7H-137c6.8-4,15.7-6.4,25.4-6.4c1.9,0,3.9,0.1,5.7,0.3c-0.2-1.2-0.3-2.3-0.3-3.5
			c0-16.8,20-30.4,44.7-30.4c24.7,0,44.7,13.6,44.7,30.4c0,1.2-0.1,2.4-0.3,3.6c4.3-1,8.9-1.5,13.7-1.5
			C7.7-98.3,17.8-95.4,25.3-90.7z"/>
		<path id="XMLID_196_" class="st3" d="M32.1-85.4h-176c7-7.1,18.9-11.7,32.4-11.7c1.9,0,3.9,0.1,5.7,0.3c-0.2-1.2-0.3-2.3-0.3-3.5
			c0-16.8,20-30.4,44.7-30.4c24.7,0,44.7,13.6,44.7,30.4c0,1.2-0.1,2.4-0.3,3.6c4.3-1,8.9-1.5,13.7-1.5
			C11.4-98.3,24.4-93.1,32.1-85.4z"/>
		<path id="XMLID_195_" class="st4" d="M-77-128.8h31.1c17,4.3,29.1,15.4,29.1,28.5c0,1.2-0.1,2.4-0.3,3.6c4.3-1,8.9-1.5,13.7-1.5
			c18,0,33.3,7.6,39.6,18.3H-148c5.6-10,19.8-17.1,36.4-17.1c1.9,0,3.9,0.1,5.7,0.3c-0.2-1.2-0.3-2.3-0.3-3.5
			C-106.1-113.4-94-124.5-77-128.8z"/>
		<path id="XMLID_194_" class="st5" d="M-90.4-123.5h57.9c9.6,5.6,15.8,13.9,15.8,23.1c0,1.2-0.1,2.4-0.3,3.6
			c4.3-1,8.9-1.5,13.7-1.5c20.8,0,38.2,10.2,41.9,23.6h-188.5c2.9-12.7,19-22.4,38.5-22.4c1.9,0,3.9,0.1,5.7,0.3
			c-0.2-1.2-0.3-2.3-0.3-3.5C-106.1-109.6-100-117.9-90.4-123.5z"/>
		<path id="XMLID_193_" class="st6" d="M-97.7-118.1h72.4c5.3,5,8.5,11.2,8.5,17.8c0,1.2-0.1,2.4-0.3,3.6c4.3-1,8.9-1.5,13.7-1.5
			c23.5,0,42.6,12.9,42.6,28.9h-189.7c0-0.4,0-0.8,0-1.3c0-14.6,17.4-26.5,39-26.5c1.9,0,3.9,0.1,5.7,0.3c-0.2-1.2-0.3-2.3-0.3-3.5
			C-106.1-107-103-113.1-97.7-118.1z"/>
		<path id="XMLID_192_" class="st7" d="M-102.2-112.8h81.5c2.5,3.8,3.9,8,3.9,12.5c0,1.2-0.1,2.4-0.3,3.6c4.3-1,8.9-1.5,13.7-1.5
			c23.5,0,42.6,13,42.6,28.9c0,1.8-0.2,3.6-0.7,5.3h-187.8c-0.8-2.1-1.2-4.3-1.2-6.6c0-14.6,17.4-26.5,39-26.5
			c1.9,0,3.9,0.1,5.7,0.3c-0.2-1.2-0.3-2.3-0.3-3.5C-106.1-104.8-104.7-109-102.2-112.8z"/>
		<path id="XMLID_191_" class="st8" d="M-104.9-107.5H-18c0.8,2.3,1.2,4.7,1.2,7.1c0,1.2-0.1,2.4-0.3,3.6c4.3-1,8.9-1.5,13.7-1.5
			c23.5,0,42.6,13,42.6,28.9c0,3.8-1.1,7.4-3,10.6h-182.6c-2.7-3.6-4.2-7.6-4.2-11.9c0-14.6,17.4-26.5,39-26.5
			c1.9,0,3.9,0.1,5.7,0.3c-0.2-1.2-0.3-2.3-0.3-3.5C-106.1-102.8-105.7-105.2-104.9-107.5z"/>
		<path id="XMLID_190_" class="st9" d="M-106.1-102.1h89.2c0.1,0.6,0.1,1.2,0.1,1.8c0,1.2-0.1,2.4-0.3,3.6c4.3-1,8.9-1.5,13.7-1.5
			c23.5,0,42.6,13,42.6,28.9c0,5.9-2.6,11.4-7.1,16h-173.2c-5.9-4.6-9.4-10.7-9.4-17.3c0-14.6,17.4-26.5,39-26.5
			c1.9,0,3.9,0.1,5.7,0.3c-0.2-1.2-0.3-2.3-0.3-3.5C-106.1-100.9-106.1-101.5-106.1-102.1z"/>
		<path id="XMLID_189_" class="st10" d="M-117.4-96.8h100.3l0,0.1l0.2-0.1H10C27-93,39.2-82.1,39.2-69.3c0,8.4-5.3,16-13.8,21.3
			h-157.5c0,0,0-0.1,0-0.1c-11.1-4.7-18.4-13-18.4-22.5C-150.5-83.9-136.2-94.9-117.4-96.8z"/>
		<path id="XMLID_188_" class="st11" d="M-135.6-91.5H24c9.3,5.3,15.2,13.3,15.2,22.1c0,12-10.7,22.2-25.9,26.7h-142.9
			c-1-1.8-1.8-3.6-2.4-5.4c-11.1-4.7-18.4-13-18.4-22.5C-150.5-79.1-144.7-86.6-135.6-91.5z"/>
		<path id="XMLID_187_" class="st12" d="M-143.2-86.1H31.3c5,4.7,7.9,10.5,7.9,16.8c0,16-19.1,28.9-42.6,28.9c-0.7,0-1.4,0-2.1,0
			c0.5,1,0.8,2,1.1,3.1h-121.6c-2.8-3.3-4.9-6.9-6.1-10.8c-11.1-4.7-18.4-13-18.4-22.5C-150.5-76.4-147.8-81.8-143.2-86.1z"/>
		<path id="XMLID_186_" class="st13" d="M-147.6-80.8H35.7c2.2,3.5,3.5,7.4,3.5,11.5c0,16-19.1,28.9-42.6,28.9c-0.7,0-1.4,0-2.1,0
			c1.1,2.4,1.7,4.9,1.7,7.5c0,0.3,0,0.6,0,0.9h-116.6c-5.7-4.6-9.7-10.1-11.7-16.1c-11.1-4.7-18.4-13-18.4-22.5
			C-150.5-74.2-149.5-77.7-147.6-80.8z"/>
		<path id="XMLID_185_" class="st14" d="M-149.9-75.5H38.2c0.6,2,1,4,1,6.1c0,16-19.1,28.9-42.6,28.9c-0.7,0-1.4,0-2.1,0
			c1.1,2.4,1.7,4.9,1.7,7.5c0,2.1-0.4,4.2-1.2,6.2h-107.4c-9.9-5.3-17-12.8-19.8-21.4c-11.1-4.7-18.4-13-18.4-22.5
			C-150.5-72.3-150.3-73.9-149.9-75.5z"/>
		<path id="XMLID_184_" class="st15" d="M-150.5-70.1H39.2c0,0.3,0,0.5,0,0.8c0,16-19.1,28.9-42.6,28.9c-0.7,0-1.4,0-2.1,0
			c1.1,2.4,1.7,4.9,1.7,7.5c0,4.2-1.5,8.1-4.2,11.5h-90.8c-16.7-4.6-29.4-14.6-33.3-26.8C-143-52.7-150.3-60.8-150.5-70.1z"/>
		<path id="XMLID_183_" class="st16" d="M-149.6-64.8H38.7C35.5-51,17.8-40.4-3.4-40.4c-0.7,0-1.4,0-2.1,0c1.1,2.4,1.7,4.9,1.7,7.5
			c0,6.5-3.7,12.5-9.8,16.9H-67c-1.3-0.9-2.5-1.9-3.5-3c-2.5,0.2-5.1,0.4-7.7,0.4c-26.4,0-48.5-12.6-53.9-29.5
			C-140.8-51.8-147.3-57.8-149.6-64.8z"/>
		<path id="XMLID_182_" class="st17" d="M-146.9-59.5H36.6C30.7-48.3,15-40.4-3.4-40.4c-0.7,0-1.4,0-2.1,0c1.1,2.4,1.7,4.9,1.7,7.5
			c0,9.7-8.2,18.2-20.2,22.2h-32.5c-5.7-1.9-10.5-4.8-14-8.3c-2.5,0.2-5.1,0.4-7.7,0.4c-26.4,0-48.5-12.6-53.9-29.5
			C-138.5-50.8-143.7-54.8-146.9-59.5z"/>
		<path id="XMLID_181_" class="st18" d="M-142-54.1H32.8c-7.5,8.2-20.9,13.7-36.2,13.7c-0.7,0-1.4,0-2.1,0c1.1,2.4,1.7,4.9,1.7,7.5
			c0,13.7-16.3,24.8-36.5,24.8C-52.9-8.1-64-12.4-70.5-19c-2.5,0.2-5.1,0.4-7.7,0.4c-26.4,0-48.5-12.6-53.9-29.5
			C-135.9-49.7-139.3-51.8-142-54.1z"/>
		<path id="XMLID_180_" class="st19" d="M-133.6-48.8H26.6c-7.7,5.2-18.3,8.4-30,8.4c-0.7,0-1.4,0-2.1,0c1.1,2.4,1.7,4.9,1.7,7.5
			c0,13.7-16.3,24.8-36.5,24.8C-52.9-8.1-64-12.4-70.5-19c-2.5,0.2-5.1,0.4-7.7,0.4c-26.4,0-48.5-12.6-53.9-29.5
			C-132.6-48.3-133.1-48.6-133.6-48.8z"/>
		<path id="XMLID_179_" class="st20" d="M-130.1-43.5H15.7c-5.7,2-12.2,3.1-19.1,3.1c-0.7,0-1.4,0-2.1,0c1.1,2.4,1.7,4.9,1.7,7.5
			c0,13.7-16.3,24.8-36.5,24.8C-52.9-8.1-64-12.4-70.5-19c-2.5,0.2-5.1,0.4-7.7,0.4C-102.1-18.6-122.5-29-130.1-43.5z"/>
		<path id="XMLID_178_" class="st21" d="M-126.6-38.1h122c0.5,1.7,0.8,3.4,0.8,5.2c0,13.7-16.3,24.8-36.5,24.8
			C-52.9-8.1-64-12.4-70.5-19c-2.5,0.2-5.1,0.4-7.7,0.4C-99.1-18.6-117.2-26.5-126.6-38.1z"/>
		<path id="XMLID_177_" class="st22" d="M-121.4-32.8H-3.8C-3.9-19.1-20.2-8.1-40.3-8.1C-52.9-8.1-64-12.4-70.5-19
			c-2.5,0.2-5.1,0.4-7.7,0.4C-95.7-18.6-111.3-24.2-121.4-32.8z"/>
		<path id="XMLID_176_" class="st23" d="M-113.7-27.4H-4.6C-8.3-16.4-22.9-8.1-40.3-8.1C-52.9-8.1-64-12.4-70.5-19
			c-2.5,0.2-5.1,0.4-7.7,0.4C-91.8-18.6-104.1-22-113.7-27.4z"/>
		<path id="XMLID_175_" class="st24" d="M-101.4-22.1h94.1c-5.9,8.3-18.4,14-32.9,14C-52.9-8.1-64-12.4-70.5-19
			c-2.5,0.2-5.1,0.4-7.7,0.4C-86.5-18.6-94.4-19.9-101.4-22.1z"/>
		<path id="XMLID_174_" class="st25" d="M-68.1-16.8h55.5c-6.7,5.3-16.7,8.7-27.8,8.7C-51.4-8.1-61.4-11.4-68.1-16.8z"/>
		<path id="XMLID_173_" class="st26" d="M-58.7-11.4h36.8c-5.4,2.1-11.7,3.4-18.4,3.4C-47-8.1-53.3-9.3-58.7-11.4z"/>
	</g>
	<g id="XMLID_410_" class="st0">
		<path id="XMLID_172_" class="st1" d="M110.3-67.3H-48.2c4.6-1.1,9.5-1.7,14.6-1.7c0.8,0,1.7,0,2.5,0c7.8-10.3,23-17.6,40.8-18.8
			c5.8-8.4,18.4-14.3,33.1-14.3c20.2,0,36.5,11.1,36.5,24.8c0,1.2-0.1,2.3-0.4,3.5c2.8-0.4,5.6-0.6,8.5-0.6c8.3,0,16.2,1.6,22.8,4.3
			V-67.3z"/>
		<path id="XMLID_171_" class="st2" d="M110.3-62H-62.1c7.7-4.4,17.7-7,28.5-7c0.8,0,1.7,0,2.5,0c7.8-10.3,23-17.6,40.8-18.8
			c5.8-8.4,18.4-14.3,33.1-14.3c20.2,0,36.5,11.1,36.5,24.8c0,1.2-0.1,2.3-0.4,3.5c2.8-0.4,5.6-0.6,8.5-0.6c8.3,0,16.2,1.6,22.8,4.3
			V-62z"/>
		<path id="XMLID_170_" class="st3" d="M110.3-56.6H-69.5c8.1-7.5,21.2-12.3,35.9-12.3c0.8,0,1.7,0,2.5,0
			c7.8-10.3,23-17.6,40.8-18.8c5.8-8.4,18.4-14.3,33.1-14.3c20.2,0,36.5,11.1,36.5,24.8c0,1.2-0.1,2.3-0.4,3.5
			c2.8-0.4,5.6-0.6,8.5-0.6c8.3,0,16.2,1.6,22.8,4.3V-56.6z"/>
		<path id="XMLID_169_" class="st4" d="M28.8-100.1h28C70-96.3,79.3-87.5,79.3-77.2c0,1.2-0.1,2.3-0.4,3.5c2.8-0.4,5.6-0.6,8.5-0.6
			c8.3,0,16.2,1.6,22.8,4.3v18.7H-74.2c7.1-10.4,22.6-17.7,40.6-17.7c0.8,0,1.7,0,2.5,0c7.8-10.3,23-17.6,40.8-18.8
			C13.5-93.2,20.3-97.7,28.8-100.1z"/>
		<path id="XMLID_168_" class="st5" d="M17-94.7h51.5c6.6,4.5,10.8,10.7,10.8,17.6c0,1.2-0.1,2.3-0.4,3.5c2.8-0.4,5.6-0.6,8.5-0.6
			c8.3,0,16.2,1.6,22.8,4.3v24H-76.9c4.8-13.2,22.4-23,43.4-23c0.8,0,1.7,0,2.5,0c7.8-10.3,23-17.6,40.8-18.8
			C11.5-90.3,14-92.7,17-94.7z"/>
		<path id="XMLID_167_" class="st6" d="M11-89.4h63.5c3,3.6,4.8,7.8,4.8,12.3c0,1.2-0.1,2.3-0.4,3.5c2.8-0.4,5.6-0.6,8.5-0.6
			c8.3,0,16.2,1.6,22.8,4.3v29.4H-78.1c1.5-15.8,20.9-28.3,44.6-28.3c0.8,0,1.7,0,2.5,0c7.8-10.3,23-17.6,40.8-18.8
			C10.1-88.3,10.5-88.8,11-89.4z"/>
		<path id="XMLID_166_" class="st7" d="M-8.6-84.1h86.5c0.9,2.2,1.4,4.5,1.4,6.9c0,1.2-0.1,2.3-0.4,3.5c2.8-0.4,5.6-0.6,8.5-0.6
			c8.3,0,16.2,1.6,22.8,4.3v34.7H-78c-0.2-1.1-0.3-2.2-0.3-3.3c0-16.8,20-30.4,44.7-30.4c0.8,0,1.7,0,2.5,0
			C-26.2-75.4-18.3-80.8-8.6-84.1z"/>
		<path id="XMLID_165_" class="st8" d="M-20-78.7h99.2c0,0.5,0.1,1.1,0.1,1.6c0,1.2-0.1,2.3-0.4,3.5c2.8-0.4,5.6-0.6,8.5-0.6
			c8.3,0,16.2,1.6,22.8,4.3v40H-76.4c-1.2-2.7-1.8-5.6-1.8-8.6c0-16.8,20-30.4,44.7-30.4c0.8,0,1.7,0,2.5,0
			C-28.3-72.6-24.5-75.9-20-78.7z"/>
		<path id="XMLID_164_" class="st9" d="M-27-73.4H98c4.4,0.7,8.5,1.9,12.3,3.4v45.4H-73.2c-3.2-4.2-5-8.9-5-14
			c0-16.8,20-30.4,44.7-30.4c0.8,0,1.7,0,2.5,0C-29.9-70.5-28.5-72-27-73.4z"/>
		<path id="XMLID_163_" class="st10" d="M-44.3-68.1h154.6v48.8H-68c-6.4-5.2-10.2-12-10.2-19.3C-78.2-52.8-63.8-64.8-44.3-68.1z"/>
		<path id="XMLID_162_" class="st11" d="M-60.7-62.7h170.9v44.9c-4.7,1.9-9.9,3.2-15.5,3.9H80.1c-2.9-0.3-5.8-0.9-8.5-1.6
			c0.1,0.5,0.2,1,0.2,1.6H-59.7c-11.3-5.5-18.6-14.5-18.6-24.6C-78.2-48.4-71.3-57.2-60.7-62.7z"/>
		<path id="XMLID_161_" class="st12" d="M-68.6-57.4h178.9v39.6c-6.7,2.7-14.5,4.3-22.8,4.3c-5.6,0-10.9-0.7-15.8-2
			c0.3,1.3,0.4,2.7,0.4,4c0,1-0.1,1.9-0.2,2.9h-89c-0.1-0.6-0.1-1.1-0.2-1.7c-2.9,0.8-5.9,1.3-9.1,1.7h-14.2
			c-21.3-2.3-37.6-14.9-37.6-30C-78.2-45.7-74.7-52.2-68.6-57.4z"/>
		<path id="XMLID_160_" class="st13" d="M-73.6-52.1h183.9v34.3c-6.7,2.7-14.5,4.3-22.8,4.3c-5.6,0-10.9-0.7-15.8-2
			c0.3,1.3,0.4,2.7,0.4,4c0,2.8-0.6,5.6-1.6,8.2h-86.1c-0.9-2.2-1.5-4.6-1.6-7c-5,1.3-10.5,2.1-16.2,2.1
			c-24.7,0-44.7-13.6-44.7-30.4C-78.2-43.4-76.6-48-73.6-52.1z"/>
		<path id="XMLID_159_" class="st14" d="M-76.6-46.7h186.9v28.9c-6.7,2.7-14.5,4.3-22.8,4.3c-5.6,0-10.9-0.7-15.8-2
			c0.3,1.3,0.4,2.7,0.4,4c0,4.9-1.7,9.5-4.7,13.5h-80c-2.7-3.7-4.4-7.9-4.6-12.3c-5,1.3-10.5,2.1-16.2,2.1
			c-24.7,0-44.7-13.6-44.7-30.4C-78.2-41.4-77.7-44.1-76.6-46.7z"/>
		<path id="XMLID_158_" class="st15" d="M-78.1-41.4h188.3v23.6c-6.7,2.7-14.5,4.3-22.8,4.3c-5.6,0-10.9-0.7-15.8-2
			c0.3,1.3,0.4,2.7,0.4,4c0,7.1-3.6,13.7-9.7,18.9h-70c-5.7-4.9-9.3-11-9.6-17.7c-5,1.3-10.5,2.1-16.2,2.1
			c-24.7,0-44.7-13.6-44.7-30.4C-78.2-39.5-78.2-40.5-78.1-41.4z"/>
		<path id="XMLID_157_" class="st16" d="M-78.1-36.1h188.4v18.3c-6.7,2.7-14.5,4.3-22.8,4.3c-5.6,0-10.9-0.7-15.8-2
			c0.3,1.3,0.4,2.7,0.4,4C72-1.6,65,7.2,54.3,12.7h-54C-10,7.4-16.8-0.9-17.4-10.3c-5,1.3-10.5,2.1-16.2,2.1
			C-57-8.2-76.2-20.5-78.1-36.1z"/>
		<path id="XMLID_156_" class="st17" d="M-76.7-30.7h187v12.9c-6.7,2.7-14.5,4.3-22.8,4.3c-5.6,0-10.9-0.7-15.8-2
			c0.3,1.3,0.4,2.7,0.4,4c0,14.3-14.6,26.4-34.3,29.5H16.9C-2.2,15-16.6,3.5-17.4-10.3c-5,1.3-10.5,2.1-16.2,2.1
			C-54.2-8.2-71.6-17.8-76.7-30.7z"/>
		<path id="XMLID_155_" class="st18" d="M-73.8-25.4h184.1v7.6c-6.7,2.7-14.5,4.3-22.8,4.3c-5.6,0-10.9-0.7-15.8-2
			c0.3,1.3,0.4,2.7,0.4,4c0,16.8-20,30.4-44.7,30.4c-24.1,0-43.7-13-44.6-29.2c-5,1.3-10.5,2.1-16.2,2.1
			C-51.3-8.2-66.6-15.2-73.8-25.4z"/>
		<path id="XMLID_154_" class="st19" d="M-69-20h179.2v2.3c-6.7,2.7-14.5,4.3-22.8,4.3c-5.6,0-10.9-0.7-15.8-2
			c0.3,1.3,0.4,2.7,0.4,4c0,16.8-20,30.4-44.7,30.4c-24.1,0-43.7-13-44.6-29.2c-5,1.3-10.5,2.1-16.2,2.1C-48-8.2-60.8-12.9-69-20z"
			/>
		<path id="XMLID_419_" class="st20" d="M-61.2-14.7H71.7c0.2,1.1,0.3,2.2,0.3,3.2c0,16.8-20,30.4-44.7,30.4
			c-24.1,0-43.7-13-44.6-29.2c-5,1.3-10.5,2.1-16.2,2.1C-44-8.2-53.6-10.6-61.2-14.7L-61.2-14.7z M75-14.7h24.8
			c-3.9,0.8-8.1,1.2-12.4,1.2C83.1-13.5,79-13.9,75-14.7z"/>
		<path id="XMLID_416_" class="st21" d="M-45.8-9.4h24.5c-3.9,0.8-8,1.2-12.3,1.2C-37.8-8.2-41.9-8.6-45.8-9.4L-45.8-9.4z
			 M-17.3-9.4h89.1C70.3,6.4,50.9,18.9,27.3,18.9C3.6,18.9-15.7,6.4-17.3-9.4z"/>
		<path id="XMLID_149_" class="st22" d="M-16-4h86.7C65.8,9.1,48.2,18.9,27.3,18.9C6.4,18.9-11.2,9.1-16-4z"/>
		<path id="XMLID_148_" class="st23" d="M-13.3,1.3h81.1c-7.1,10.4-22.6,17.6-40.6,17.6C9.3,18.9-6.2,11.7-13.3,1.3z"/>
		<path id="XMLID_147_" class="st24" d="M-8.6,6.6h71.8C55,14.1,42,18.9,27.3,18.9C12.6,18.9-0.5,14.1-8.6,6.6z"/>
		<path id="XMLID_146_" class="st25" d="M-1.1,12h56.8c-7.7,4.3-17.6,6.9-28.4,6.9C16.5,18.9,6.6,16.3-1.1,12z"/>
		<path id="XMLID_145_" class="st26" d="M12.9,17.3h28.7c-4.5,1-9.3,1.6-14.4,1.6C22.3,18.9,17.4,18.3,12.9,17.3z"/>
	</g>
	<g id="XMLID_383_" class="st0">
		<path id="XMLID_144_" class="st1" d="M-64.4-24.2H-200c3.5-0.7,7.2-1.1,11-1.1c1.9,0,3.9,0.1,5.7,0.3c-0.2-1.2-0.3-2.3-0.3-3.5
			c0-16.8,20-30.4,44.7-30.4c24.7,0,44.7,13.6,44.7,30.4c0,1.2-0.1,2.4-0.3,3.6c4.3-1,8.9-1.5,13.7-1.5
			C-75-26.4-69.4-25.6-64.4-24.2z"/>
		<path id="XMLID_143_" class="st2" d="M-52.1-18.8h-162.3c6.8-4,15.7-6.4,25.4-6.4c1.9,0,3.9,0.1,5.7,0.3c-0.2-1.2-0.3-2.3-0.3-3.5
			c0-16.8,20-30.4,44.7-30.4c24.7,0,44.7,13.6,44.7,30.4c0,1.2-0.1,2.4-0.3,3.6c4.3-1,8.9-1.5,13.7-1.5
			C-69.8-26.4-59.7-23.6-52.1-18.8z"/>
		<path id="XMLID_142_" class="st3" d="M-45.4-13.5h-176c7-7.1,18.9-11.7,32.4-11.7c1.9,0,3.9,0.1,5.7,0.3c-0.2-1.2-0.3-2.3-0.3-3.5
			c0-16.8,20-30.4,44.7-30.4c24.7,0,44.7,13.6,44.7,30.4c0,1.2-0.1,2.4-0.3,3.6c4.3-1,8.9-1.5,13.7-1.5
			C-66.1-26.4-53-21.3-45.4-13.5z"/>
		<path id="XMLID_141_" class="st4" d="M-154.5-57h31.1c17,4.3,29.1,15.4,29.1,28.5c0,1.2-0.1,2.4-0.3,3.6c4.3-1,8.9-1.5,13.7-1.5
			c18,0,33.3,7.6,39.6,18.3h-184.2c5.6-10,19.8-17.1,36.4-17.1c1.9,0,3.9,0.1,5.7,0.3c-0.2-1.2-0.3-2.3-0.3-3.5
			C-183.6-41.5-171.5-52.7-154.5-57z"/>
		<path id="XMLID_140_" class="st5" d="M-167.8-51.6h57.9c9.6,5.6,15.8,13.9,15.8,23.1c0,1.2-0.1,2.4-0.3,3.6
			c4.3-1,8.9-1.5,13.7-1.5C-60-26.4-42.7-16.3-39-2.8h-188.5c2.9-12.7,19-22.4,38.5-22.4c1.9,0,3.9,0.1,5.7,0.3
			c-0.2-1.2-0.3-2.3-0.3-3.5C-183.6-37.8-177.5-46.1-167.8-51.6z"/>
		<path id="XMLID_139_" class="st6" d="M-175.1-46.3h72.4c5.3,5,8.5,11.2,8.5,17.8c0,1.2-0.1,2.4-0.3,3.6c4.3-1,8.9-1.5,13.7-1.5
			c23.5,0,42.6,12.9,42.6,28.9h-189.7c0-0.4,0-0.8,0-1.3c0-14.6,17.4-26.5,39-26.5c1.9,0,3.9,0.1,5.7,0.3c-0.2-1.2-0.3-2.3-0.3-3.5
			C-183.6-35.1-180.4-41.3-175.1-46.3z"/>
		<path id="XMLID_138_" class="st7" d="M-179.7-41h81.5c2.5,3.8,3.9,8,3.9,12.5c0,1.2-0.1,2.4-0.3,3.6c4.3-1,8.9-1.5,13.7-1.5
			c23.5,0,42.6,13,42.6,28.9c0,1.8-0.2,3.6-0.7,5.3h-187.8c-0.8-2.1-1.2-4.3-1.2-6.6c0-14.6,17.4-26.5,39-26.5
			c1.9,0,3.9,0.1,5.7,0.3c-0.2-1.2-0.3-2.3-0.3-3.5C-183.6-32.9-182.2-37.2-179.7-41z"/>
		<path id="XMLID_137_" class="st8" d="M-182.3-35.6h86.9c0.8,2.3,1.2,4.7,1.2,7.1c0,1.2-0.1,2.4-0.3,3.6c4.3-1,8.9-1.5,13.7-1.5
			c23.5,0,42.6,13,42.6,28.9c0,3.8-1.1,7.4-3,10.6h-182.6c-2.7-3.6-4.2-7.6-4.2-11.9c0-14.6,17.4-26.5,39-26.5
			c1.9,0,3.9,0.1,5.7,0.3c-0.2-1.2-0.3-2.3-0.3-3.5C-183.6-31-183.2-33.3-182.3-35.6z"/>
		<path id="XMLID_136_" class="st9" d="M-183.5-30.3h89.2c0.1,0.6,0.1,1.2,0.1,1.8c0,1.2-0.1,2.4-0.3,3.6c4.3-1,8.9-1.5,13.7-1.5
			c23.5,0,42.6,13,42.6,28.9c0,5.9-2.6,11.4-7.1,16h-173.2c-5.9-4.6-9.4-10.7-9.4-17.3c0-14.6,17.4-26.5,39-26.5
			c1.9,0,3.9,0.1,5.7,0.3c-0.2-1.2-0.3-2.3-0.3-3.5C-183.6-29.1-183.6-29.7-183.5-30.3z"/>
		<path id="XMLID_135_" class="st10" d="M-194.8-25h100.3l0,0.1l0.2-0.1h26.9c16.9,3.8,29.2,14.7,29.2,27.5c0,8.4-5.3,16-13.8,21.3
			h-157.5c0,0,0-0.1,0-0.1c-11.1-4.7-18.4-13-18.4-22.5C-228-12.1-213.6-23-194.8-25z"/>
		<path id="XMLID_134_" class="st11" d="M-213-19.6h159.6c9.3,5.3,15.2,13.3,15.2,22.1c0,12-10.7,22.2-25.9,26.7h-142.9
			c-1-1.8-1.8-3.6-2.4-5.4c-11.1-4.7-18.4-13-18.4-22.5C-228-7.2-222.1-14.8-213-19.6z"/>
		<path id="XMLID_133_" class="st12" d="M-220.6-14.3h174.4c5,4.7,7.9,10.5,7.9,16.8c0,16-19.1,28.9-42.6,28.9c-0.7,0-1.4,0-2.1,0
			c0.5,1,0.8,2,1.1,3.1h-121.6c-2.8-3.3-4.9-6.9-6.1-10.8c-11.1-4.7-18.4-13-18.4-22.5C-228-4.6-225.2-9.9-220.6-14.3z"/>
		<path id="XMLID_132_" class="st13" d="M-225-9h183.3c2.2,3.5,3.5,7.4,3.5,11.5c0,16-19.1,28.9-42.6,28.9c-0.7,0-1.4,0-2.1,0
			c1.1,2.4,1.7,4.9,1.7,7.5c0,0.3,0,0.6,0,0.9h-116.6c-5.7-4.6-9.7-10.1-11.7-16.1c-11.1-4.7-18.4-13-18.4-22.5
			C-228-2.4-226.9-5.8-225-9z"/>
		<path id="XMLID_131_" class="st14" d="M-227.3-3.6h188.1c0.6,2,1,4,1,6.1c0,16-19.1,28.9-42.6,28.9c-0.7,0-1.4,0-2.1,0
			c1.1,2.4,1.7,4.9,1.7,7.5c0,2.1-0.4,4.2-1.2,6.2h-107.4c-9.9-5.3-17-12.8-19.8-21.4c-11.1-4.7-18.4-13-18.4-22.5
			C-228-0.4-227.8-2-227.3-3.6z"/>
		<path id="XMLID_130_" class="st15" d="M-228,1.7h189.7c0,0.3,0,0.5,0,0.8c0,16-19.1,28.9-42.6,28.9c-0.7,0-1.4,0-2.1,0
			c1.1,2.4,1.7,4.9,1.7,7.5c0,4.2-1.5,8.1-4.2,11.5h-90.8c-16.7-4.6-29.4-14.6-33.3-26.8C-220.4,19.1-227.7,11-228,1.7z"/>
		<path id="XMLID_129_" class="st16" d="M-227,7.1h188.3C-42,20.9-59.6,31.5-80.9,31.5c-0.7,0-1.4,0-2.1,0c1.1,2.4,1.7,4.9,1.7,7.5
			c0,6.5-3.7,12.5-9.8,16.9h-53.5c-1.3-0.9-2.5-1.9-3.5-3c-2.5,0.2-5.1,0.4-7.7,0.4c-26.4,0-48.5-12.6-53.9-29.5
			C-218.3,20-224.7,14.1-227,7.1z"/>
		<path id="XMLID_128_" class="st17" d="M-224.3,12.4h183.6c-5.9,11.1-21.6,19.1-40.1,19.1c-0.7,0-1.4,0-2.1,0
			c1.1,2.4,1.7,4.9,1.7,7.5c0,9.7-8.2,18.2-20.2,22.2H-134c-5.7-1.9-10.5-4.8-14-8.3c-2.5,0.2-5.1,0.4-7.7,0.4
			c-26.4,0-48.5-12.6-53.9-29.5C-216,21-221.1,17.1-224.3,12.4z"/>
		<path id="XMLID_127_" class="st18" d="M-219.5,17.7h174.9c-7.5,8.2-20.9,13.7-36.3,13.7c-0.7,0-1.4,0-2.1,0
			c1.1,2.4,1.7,4.9,1.7,7.5c0,13.7-16.3,24.8-36.5,24.8c-12.6,0-23.7-4.3-30.3-10.9c-2.5,0.2-5.1,0.4-7.7,0.4
			c-26.4,0-48.5-12.6-53.9-29.5C-213.3,22.1-216.7,20.1-219.5,17.7z"/>
		<path id="XMLID_126_" class="st19" d="M-211,23.1h160.2c-7.7,5.2-18.3,8.4-30,8.4c-0.7,0-1.4,0-2.1,0c1.1,2.4,1.7,4.9,1.7,7.5
			c0,13.7-16.3,24.8-36.5,24.8c-12.6,0-23.7-4.3-30.3-10.9c-2.5,0.2-5.1,0.4-7.7,0.4c-26.4,0-48.5-12.6-53.9-29.5
			C-210,23.5-210.5,23.3-211,23.1z"/>
		<path id="XMLID_125_" class="st20" d="M-207.6,28.4h145.8c-5.7,2-12.2,3.1-19.1,3.1c-0.7,0-1.4,0-2.1,0c1.1,2.4,1.7,4.9,1.7,7.5
			c0,13.7-16.3,24.8-36.5,24.8c-12.6,0-23.7-4.3-30.3-10.9c-2.5,0.2-5.1,0.4-7.7,0.4C-179.6,53.2-199.9,42.9-207.6,28.4z"/>
		<path id="XMLID_124_" class="st21" d="M-204,33.7h122c0.5,1.7,0.8,3.4,0.8,5.2c0,13.7-16.3,24.8-36.5,24.8
			c-12.6,0-23.7-4.3-30.3-10.9c-2.5,0.2-5.1,0.4-7.7,0.4C-176.5,53.2-194.7,45.3-204,33.7z"/>
		<path id="XMLID_123_" class="st22" d="M-198.8,39.1h117.6c-0.1,13.7-16.4,24.7-36.5,24.7c-12.6,0-23.7-4.3-30.3-10.9
			c-2.5,0.2-5.1,0.4-7.7,0.4C-173.1,53.2-188.7,47.7-198.8,39.1z"/>
		<path id="XMLID_122_" class="st23" d="M-191.2,44.4h109.1c-3.6,11.1-18.2,19.4-35.6,19.4c-12.6,0-23.7-4.3-30.3-10.9
			c-2.5,0.2-5.1,0.4-7.7,0.4C-169.2,53.2-181.6,49.9-191.2,44.4z"/>
		<path id="XMLID_121_" class="st24" d="M-178.9,49.7h94.1c-5.9,8.3-18.4,14-32.9,14c-12.6,0-23.7-4.3-30.3-10.9
			c-2.5,0.2-5.1,0.4-7.7,0.4C-164,53.2-171.8,52-178.9,49.7z"/>
		<path id="XMLID_120_" class="st25" d="M-145.5,55.1H-90c-6.7,5.3-16.7,8.7-27.8,8.7C-128.8,63.8-138.8,60.4-145.5,55.1z"/>
		<path id="XMLID_119_" class="st26" d="M-136.1,60.4h36.8c-5.4,2.1-11.7,3.4-18.4,3.4C-124.4,63.8-130.7,62.6-136.1,60.4z"/>
	</g>
	<g id="XMLID_353_" class="st0">
		<path id="XMLID_118_" class="st1" d="M110.3-16.2H-47.9c7.7-4.4,17.7-7,28.5-7c2.9,0,5.8,0.2,8.5,0.6c-0.2-1.1-0.4-2.3-0.4-3.5
			c0-13.7,16.3-24.8,36.5-24.8c14.6,0,27.3,5.9,33.1,14.3c17.8,1.1,33,8.4,40.8,18.8c0.8,0,1.6,0,2.5,0c3,0,5.9,0.2,8.7,0.6V-16.2z"
			/>
		<path id="XMLID_117_" class="st2" d="M110.3-10.9H-55.4c8.1-7.5,21.2-12.3,35.9-12.3c2.9,0,5.8,0.2,8.5,0.6
			c-0.2-1.1-0.4-2.3-0.4-3.5c0-13.7,16.3-24.8,36.5-24.8c14.6,0,27.3,5.9,33.1,14.3c17.8,1.1,33,8.4,40.8,18.8c0.8,0,1.6,0,2.5,0
			c3,0,5.9,0.2,8.7,0.6V-10.9z"/>
		<path id="XMLID_116_" class="st3" d="M110.3-5.5H-60c7.1-10.4,22.6-17.6,40.6-17.6c2.9,0,5.8,0.2,8.5,0.6
			c-0.2-1.1-0.4-2.3-0.4-3.5c0-13.7,16.3-24.8,36.5-24.8c14.6,0,27.3,5.9,33.1,14.3c17.8,1.1,33,8.4,40.8,18.8c0.8,0,1.6,0,2.5,0
			c3,0,5.9,0.2,8.7,0.6V-5.5z"/>
		<path id="XMLID_115_" class="st4" d="M11.2-49h28c8.4,2.4,15.2,6.8,19.1,12.4c17.8,1.1,33,8.4,40.8,18.8c0.8,0,1.6,0,2.5,0
			c3,0,5.9,0.2,8.7,0.6v17.1H-62.8c4.9-13.2,22.4-23,43.3-23c2.9,0,5.8,0.2,8.5,0.6c-0.2-1.1-0.4-2.3-0.4-3.5
			C-11.3-36.4-2-45.3,11.2-49z"/>
		<path id="XMLID_114_" class="st5" d="M-0.5-43.7H51c3,2,5.5,4.4,7.3,7.1c17.8,1.1,33,8.4,40.8,18.8c0.8,0,1.6,0,2.5,0
			c3,0,5.9,0.2,8.7,0.6V5.1H-64c1.6-15.8,20.9-28.3,44.6-28.3c2.9,0,5.8,0.2,8.5,0.6c-0.2-1.1-0.4-2.3-0.4-3.5
			C-11.3-33-7.2-39.2-0.5-43.7z"/>
		<path id="XMLID_113_" class="st6" d="M-6.5-38.3H57c0.5,0.6,0.9,1.1,1.3,1.7c17.8,1.1,33,8.4,40.8,18.8c0.8,0,1.6,0,2.5,0
			c3,0,5.9,0.2,8.7,0.6v27.8H-63.9c-0.2-1.1-0.3-2.2-0.3-3.3c0-16.8,20-30.4,44.7-30.4c2.9,0,5.8,0.2,8.5,0.6
			c-0.2-1.1-0.4-2.3-0.4-3.5C-11.3-30.5-9.6-34.7-6.5-38.3z"/>
		<path id="XMLID_112_" class="st7" d="M-9.8-33h86.5c9.6,3.3,17.5,8.6,22.4,15.2c0.8,0,1.6,0,2.5,0c3,0,5.9,0.2,8.7,0.6v33.1H-62.3
			c-1.2-2.7-1.8-5.6-1.8-8.6c0-16.8,20-30.4,44.7-30.4c2.9,0,5.8,0.2,8.5,0.6c-0.2-1.1-0.4-2.3-0.4-3.5C-11.3-28.5-10.8-30.8-9.8-33
			z"/>
		<path id="XMLID_111_" class="st8" d="M-11.2-27.7H88c4.5,2.8,8.3,6.1,11.1,9.8c0.8,0,1.6,0,2.5,0c3,0,5.9,0.2,8.7,0.6v38.4H-59.2
			c-3.2-4.2-5-8.9-5-13.9c0-16.8,20-30.4,44.7-30.4c2.9,0,5.8,0.2,8.5,0.6c-0.2-1.1-0.4-2.3-0.4-3.5C-11.3-26.6-11.3-27.1-11.2-27.7
			z"/>
		<path id="XMLID_110_" class="st9" d="M-30-22.3H95c1.5,1.4,2.9,2.9,4.1,4.5c0.8,0,1.6,0,2.5,0c3,0,5.9,0.2,8.7,0.6v43.8H-54
			c-6.4-5.2-10.2-12-10.2-19.3C-64.1-7.1-49.6-19.1-30-22.3z"/>
		<path id="XMLID_109_" class="st10" d="M-46.5-17h156.8v48.8H-45.6c-11.2-5.5-18.5-14.5-18.5-24.6C-64.1-2.7-57.2-11.4-46.5-17z"/>
		<path id="XMLID_108_" class="st11" d="M-54.5-11.7h164.8v48.8H-3.8c0.1-0.5,0.1-1,0.2-1.6c-2.7,0.7-5.6,1.2-8.5,1.6h-14.7
			c-21.2-2.4-37.3-14.9-37.3-30C-64.1,0.1-60.5-6.5-54.5-11.7z"/>
		<path id="XMLID_107_" class="st12" d="M-59.5-6.3h169.8v48.6c-0.5,0.1-1.1,0.1-1.6,0.2H94.4c-3.2-0.3-6.2-0.9-9.1-1.7
			c0,0.6-0.1,1.1-0.2,1.7h-89C-3.9,41.5-4,40.6-4,39.6c0-1.4,0.1-2.7,0.4-4c-4.9,1.3-10.3,2-15.8,2c-24.7,0-44.7-13.6-44.7-30.4
			C-64.1,2.3-62.5-2.3-59.5-6.3z"/>
		<path id="XMLID_106_" class="st13" d="M-62.5-1h172.8v43.3c-2.8,0.4-5.7,0.6-8.7,0.6c-5.7,0-11.2-0.7-16.2-2.1
			c-0.1,2.4-0.7,4.8-1.6,7H-2.3C-3.4,45.2-4,42.4-4,39.6c0-1.4,0.1-2.7,0.4-4c-4.9,1.3-10.3,2-15.8,2c-24.7,0-44.7-13.6-44.7-30.4
			C-64.1,4.3-63.6,1.6-62.5-1z"/>
		<path id="XMLID_105_" class="st14" d="M-63.9,4.3h174.2v37.9c-2.8,0.4-5.7,0.6-8.7,0.6c-5.7,0-11.2-0.7-16.2-2.1
			c-0.2,4.4-1.9,8.6-4.6,12.3h-80c-3-4.1-4.7-8.7-4.7-13.5c0-1.4,0.1-2.7,0.4-4c-4.9,1.3-10.3,2-15.8,2c-24.7,0-44.7-13.6-44.7-30.4
			C-64.1,6.2-64.1,5.3-63.9,4.3z"/>
		<path id="XMLID_104_" class="st15" d="M-64,9.7h174.3v32.6c-2.8,0.4-5.7,0.6-8.7,0.6c-5.7,0-11.2-0.7-16.2-2.1
			c-0.4,6.7-3.9,12.8-9.6,17.7h-70C-0.4,53.3-4,46.7-4,39.6c0-1.4,0.1-2.7,0.4-4c-4.9,1.3-10.3,2-15.8,2
			C-42.9,37.5-62.1,25.3-64,9.7z"/>
		<path id="XMLID_103_" class="st16" d="M-62.6,15h172.9v27.3c-2.8,0.4-5.7,0.6-8.7,0.6c-5.7,0-11.2-0.7-16.2-2.1
			c-0.5,9.4-7.3,17.7-17.7,23h-54C2.9,58.3-4,49.5-4,39.6c0-1.4,0.1-2.7,0.4-4c-4.9,1.3-10.3,2-15.8,2C-40.1,37.5-57.5,28-62.6,15z"
			/>
		<path id="XMLID_102_" class="st17" d="M-59.7,20.4h170v21.9c-2.8,0.4-5.7,0.6-8.7,0.6c-5.7,0-11.2-0.7-16.2-2.1
			c-0.7,12.5-12.5,23-28.9,27.2H24.9C8,63.7-4,52.6-4,39.6c0-1.4,0.1-2.7,0.4-4c-4.9,1.3-10.3,2-15.8,2
			C-37.2,37.5-52.5,30.5-59.7,20.4z"/>
		<path id="XMLID_101_" class="st18" d="M-54.9,25.7h165.2v16.6c-2.8,0.4-5.7,0.6-8.7,0.6c-5.7,0-11.2-0.7-16.2-2.1
			c-0.7,12.5-12.5,23-28.9,27.2H24.9C8,63.7-4,52.6-4,39.6c0-1.4,0.1-2.7,0.4-4c-4.9,1.3-10.3,2-15.8,2
			C-33.9,37.5-46.7,32.9-54.9,25.7z"/>
		<path id="XMLID_100_" class="st19" d="M-47.1,31h157.4v11.2c-2.8,0.4-5.7,0.6-8.7,0.6c-5.7,0-11.2-0.7-16.2-2.1
			c-0.7,12.5-12.5,23-28.9,27.2H24.9C8,63.7-4,52.6-4,39.6c0-1.4,0.1-2.7,0.4-4c-4.9,1.3-10.3,2-15.8,2
			C-29.9,37.5-39.5,35.1-47.1,31z"/>
		<path id="XMLID_361_" class="st20" d="M-31.8,36.4h24.8c-3.9,0.8-8.1,1.2-12.4,1.2C-23.8,37.5-27.9,37.1-31.8,36.4L-31.8,36.4z
			 M110.3,36.4v5.9c-2.8,0.4-5.7,0.6-8.7,0.6c-5.7,0-11.2-0.7-16.2-2.1c-0.7,12.5-12.5,23-28.9,27.2H24.9C8,63.7-4,52.6-4,39.6
			c0-1.1,0.1-2.2,0.3-3.2H110.3z"/>
		<path id="XMLID_358_" class="st21" d="M-3.9,41.7h89.1C84.1,53.8,72.4,63.9,56.5,68H24.9C8.9,63.9-2.7,53.8-3.9,41.7L-3.9,41.7z
			 M110.3,41.7v0.6c-2.8,0.4-5.7,0.6-8.7,0.6c-4.2,0-8.4-0.4-12.2-1.2H110.3z"/>
		<path id="XMLID_95_" class="st22" d="M-2.6,47H84c-3.6,9.7-14,17.5-27.5,21H24.9C11.3,64.5,0.9,56.7-2.6,47z"/>
		<path id="XMLID_94_" class="st23" d="M0.1,52.4h81.1C76.3,59.5,67.4,65.2,56.5,68H24.9C13.9,65.2,5,59.5,0.1,52.4z"/>
		<path id="XMLID_93_" class="st24" d="M4.8,57.7h71.8c-5.1,4.6-12,8.2-20.1,10.3H24.9C16.8,65.9,9.9,62.3,4.8,57.7z"/>
		<path id="XMLID_92_" class="st25" d="M12.3,63h56.8c-3.7,2.1-8,3.8-12.6,5H24.9C20.3,66.8,16,65.1,12.3,63z"/>
	</g>
	<g id="XMLID_327_" class="st0">
		<path id="XMLID_91_" class="st1" d="M-209.3-0.7h-110.4v-30.9c5.6-2.4,12.3-3.8,19.4-3.8c14.6,0,27.3,5.9,33.1,14.3
			c17.8,1.1,33,8.4,40.8,18.8c0.8,0,1.6,0,2.5,0C-218.8-2.4-213.9-1.8-209.3-0.7z"/>
		<path id="XMLID_90_" class="st2" d="M-195.4,4.6h-124.3v-36.2c5.6-2.4,12.3-3.8,19.4-3.8c14.6,0,27.3,5.9,33.1,14.3
			c17.8,1.1,33,8.4,40.8,18.8c0.8,0,1.6,0,2.5,0C-213.1-2.4-203.1,0.3-195.4,4.6z"/>
		<path id="XMLID_89_" class="st3" d="M-188,10h-131.7v-41.5c5.6-2.4,12.3-3.8,19.4-3.8c14.6,0,27.3,5.9,33.1,14.3
			c17.8,1.1,33,8.4,40.8,18.8c0.8,0,1.6,0,2.5,0C-209.2-2.4-196.1,2.5-188,10z"/>
		<path id="XMLID_88_" class="st4" d="M-314.2-33.5h28c8.4,2.4,15.2,6.8,19.1,12.4c17.8,1.1,33,8.4,40.8,18.8c0.8,0,1.6,0,2.5,0
			c18,0,33.5,7.2,40.6,17.7h-136.4v-46.9C-318-32.3-316.1-33-314.2-33.5z"/>
		<path id="XMLID_87_" class="st5" d="M-319.7-28.2h45.2c3,2,5.5,4.4,7.3,7.1c17.8,1.1,33,8.4,40.8,18.8c0.8,0,1.6,0,2.5,0
			c20.9,0,38.5,9.8,43.4,23h-139.1V-28.2z"/>
		<path id="XMLID_86_" class="st6" d="M-319.7-22.8h51.2c0.5,0.6,0.9,1.1,1.3,1.7c17.8,1.1,33,8.4,40.8,18.8c0.8,0,1.6,0,2.5,0
			c23.7,0,43,12.5,44.6,28.3h-140.3V-22.8z"/>
		<path id="XMLID_85_" class="st7" d="M-319.7-17.5h70.8c9.6,3.3,17.5,8.6,22.4,15.2c0.8,0,1.6,0,2.5,0c24.7,0,44.7,13.6,44.7,30.4
			c0,1.1-0.1,2.2-0.3,3.3h-140.2V-17.5z"/>
		<path id="XMLID_84_" class="st8" d="M-319.7-12.2h82.2c4.5,2.8,8.3,6.1,11.1,9.8c0.8,0,1.6,0,2.5,0c24.7,0,44.7,13.6,44.7,30.4
			c0,3-0.6,5.9-1.8,8.6h-138.6V-12.2z"/>
		<path id="XMLID_83_" class="st9" d="M-319.7-6.8h89.2c1.5,1.4,2.9,2.9,4.1,4.5c0.8,0,1.6,0,2.5,0c24.7,0,44.7,13.6,44.7,30.4
			c0,5-1.8,9.8-5,14h-135.4V-6.8z"/>
		<path id="XMLID_82_" class="st10" d="M-319.7-1.5h106.5c19.5,3.3,34,15.2,34,29.5c0,7.3-3.8,14.1-10.2,19.3h-130.2V-1.5z"/>
		<path id="XMLID_81_" class="st11" d="M-319.7,3.9h122.9c10.7,5.5,17.6,14.3,17.6,24.1c0,10.1-7.3,19.1-18.6,24.6h-121.9V3.9z"/>
		<path id="XMLID_80_" class="st12" d="M-319.7,9.2h130.8c6,5.2,9.6,11.7,9.6,18.8c0,15.1-16.3,27.7-37.6,30H-231
			c-3.2-0.3-6.2-0.9-9.1-1.7c0,0.6-0.1,1.1-0.2,1.7h-79.4V9.2z"/>
		<path id="XMLID_79_" class="st13" d="M-319.7,14.5h135.8c3,4.1,4.6,8.6,4.6,13.5c0,16.8-20,30.4-44.7,30.4
			c-5.7,0-11.2-0.7-16.2-2.1c-0.1,2.4-0.7,4.8-1.6,7h-77.9V14.5z"/>
		<path id="XMLID_78_" class="st14" d="M-319.7,19.9h138.8c1.1,2.6,1.6,5.3,1.6,8.1c0,16.8-20,30.4-44.7,30.4
			c-5.7,0-11.2-0.7-16.2-2.1c-0.2,4.2-1.7,8.1-4.2,11.7h-75.4V19.9z"/>
		<path id="XMLID_77_" class="st15" d="M-319.7,25.2h140.2c0.1,0.9,0.2,1.9,0.2,2.8c0,16.8-20,30.4-44.7,30.4
			c-5.7,0-11.2-0.7-16.2-2.1c-0.2,4.2-1.7,8.1-4.2,11.7h-75.4V25.2z"/>
		<path id="XMLID_76_" class="st16" d="M-319.7,30.5h140.3c-1.9,15.6-21.1,27.8-44.5,27.8c-5.7,0-11.2-0.7-16.2-2.1
			c-0.2,4.2-1.7,8.1-4.2,11.7h-75.4V30.5z"/>
		<path id="XMLID_75_" class="st17" d="M-319.7,35.9h138.9c-5.1,13-22.5,22.5-43.2,22.5c-5.7,0-11.2-0.7-16.2-2.1
			c-0.2,4.2-1.7,8.1-4.2,11.7h-75.4V35.9z"/>
		<path id="XMLID_74_" class="st18" d="M-319.7,41.2h136c-7.2,10.2-22.5,17.2-40.2,17.2c-5.7,0-11.2-0.7-16.2-2.1
			c-0.2,4.2-1.7,8.1-4.2,11.7h-75.4V41.2z"/>
		<path id="XMLID_73_" class="st19" d="M-319.7,46.5h131.1c-8.2,7.2-21,11.8-35.4,11.8c-5.7,0-11.2-0.7-16.2-2.1
			c-0.2,4.2-1.7,8.1-4.2,11.7h-75.4V46.5z"/>
		<path id="XMLID_72_" class="st20" d="M-244.3,68h-75.4V51.9h123.4c-7.6,4.1-17.2,6.5-27.6,6.5c-5.7,0-11.2-0.7-16.2-2.1
			C-240.4,60.5-241.9,64.4-244.3,68z"/>
		<path id="XMLID_330_" class="st21" d="M-319.7,57.2h79.5c-0.4,3.8-1.8,7.5-4.1,10.8h-75.4V57.2L-319.7,57.2z M-236.2,57.2h24.5
			c-3.9,0.8-8,1.2-12.3,1.2C-228.2,58.4-232.3,58-236.2,57.2z"/>
		<path id="XMLID_69_" class="st22" d="M-319.7,62.5h78.2c-0.7,1.9-1.7,3.7-2.9,5.5h-75.4V62.5z"/>
		<path id="XMLID_68_" class="st23" d="M-319.7,67.9h75.5c0,0-0.1,0.1-0.1,0.1h-75.4V67.9z"/>
	</g>
	<g id="XMLID_314_" class="st0">
		<path id="XMLID_67_" class="st1" d="M-128.3,56.5H-264c5.1-1.4,10.6-2.2,16.5-2.2c4.8,0,9.4,0.5,13.7,1.5
			c-0.2-1.2-0.3-2.4-0.3-3.6c0-16.8,20-30.4,44.7-30.4c24.7,0,44.7,13.6,44.7,30.4c0,1.2-0.1,2.4-0.3,3.5c1.9-0.2,3.8-0.3,5.7-0.3
			C-135.5,55.5-131.8,55.8-128.3,56.5z"/>
		<path id="XMLID_66_" class="st2" d="M-113.9,61.9h-162.3c7.6-4.7,17.7-7.6,28.7-7.6c4.8,0,9.4,0.5,13.7,1.5
			c-0.2-1.2-0.3-2.4-0.3-3.6c0-16.8,20-30.4,44.7-30.4c24.7,0,44.7,13.6,44.7,30.4c0,1.2-0.1,2.4-0.3,3.5c1.9-0.2,3.8-0.3,5.7-0.3
			C-129.6,55.5-120.7,57.9-113.9,61.9z"/>
		<path id="XMLID_65_" class="st3" d="M-106.9,67.2h-176c7.6-7.8,20.7-12.9,35.5-12.9c4.8,0,9.4,0.5,13.7,1.5
			c-0.2-1.2-0.3-2.4-0.3-3.6c0-16.8,20-30.4,44.7-30.4c24.7,0,44.7,13.6,44.7,30.4c0,1.2-0.1,2.4-0.3,3.5c1.9-0.2,3.8-0.3,5.7-0.3
			C-125.8,55.5-113.9,60.1-106.9,67.2z"/>
		<path id="XMLID_64_" class="st4" d="M-205,23.7h31.1c17,4.3,29.1,15.4,29.1,28.5c0,1.2-0.1,2.4-0.3,3.5c1.9-0.2,3.8-0.3,5.7-0.3
			c14,0,26.3,5,33.1,12.6h-177.6c7.5-8.2,20.9-13.7,36.2-13.7c4.8,0,9.4,0.5,13.7,1.5c-0.2-1.2-0.3-2.4-0.3-3.6
			C-234.1,39.2-222,28-205,23.7z"/>
		<path id="XMLID_63_" class="st5" d="M-218.3,29.1h57.9c9.6,5.6,15.8,13.9,15.8,23.1c0,1.2-0.1,2.4-0.3,3.5
			c1.9-0.2,3.8-0.3,5.7-0.3c14,0,26.3,5,33.1,12.6h-177.6c7.5-8.2,20.9-13.7,36.2-13.7c4.8,0,9.4,0.5,13.7,1.5
			c-0.2-1.2-0.3-2.4-0.3-3.6C-234.1,43-228,34.7-218.3,29.1z"/>
		<path id="XMLID_62_" class="st6" d="M-225.6,34.4h72.4c5.3,5,8.5,11.2,8.5,17.8c0,1.2-0.1,2.4-0.3,3.5c1.9-0.2,3.8-0.3,5.7-0.3
			c14,0,26.3,5,33.1,12.6h-177.6c7.5-8.2,20.9-13.7,36.2-13.7c4.8,0,9.4,0.5,13.7,1.5c-0.2-1.2-0.3-2.4-0.3-3.6
			C-234.1,45.6-230.9,39.4-225.6,34.4z"/>
		<path id="XMLID_61_" class="st7" d="M-230.2,39.8h81.5c2.5,3.8,3.9,8,3.9,12.5c0,1.2-0.1,2.4-0.3,3.5c1.9-0.2,3.8-0.3,5.7-0.3
			c14,0,26.3,5,33.1,12.6h-177.6c7.5-8.2,20.9-13.7,36.2-13.7c4.8,0,9.4,0.5,13.7,1.5c-0.2-1.2-0.3-2.4-0.3-3.6
			C-234.1,47.8-232.7,43.6-230.2,39.8z"/>
		<path id="XMLID_60_" class="st8" d="M-232.9,45.1h86.9c0.8,2.3,1.2,4.7,1.2,7.1c0,1.2-0.1,2.4-0.3,3.5c1.9-0.2,3.8-0.3,5.7-0.3
			c14,0,26.3,5,33.1,12.6h-177.6c7.5-8.2,20.9-13.7,36.2-13.7c4.8,0,9.4,0.5,13.7,1.5c-0.2-1.2-0.3-2.4-0.3-3.6
			C-234.1,49.8-233.7,47.4-232.9,45.1z"/>
		<path id="XMLID_59_" class="st9" d="M-234,50.4h89.2c0.1,0.6,0.1,1.2,0.1,1.8c0,1.2-0.1,2.4-0.3,3.5c1.9-0.2,3.8-0.3,5.7-0.3
			c14,0,26.3,5,33.1,12.6h-177.6c7.5-8.2,20.9-13.7,36.2-13.7c4.8,0,9.4,0.5,13.7,1.5c-0.2-1.2-0.3-2.4-0.3-3.6
			C-234.1,51.6-234.1,51-234,50.4z"/>
		<path id="XMLID_58_" class="st10" d="M-260.9,55.8h26.9l0.2,0.1l0-0.1h100.3c11.5,1.2,21.4,5.8,27.3,12.3h-177.6
			C-278.5,62.3-270.5,57.9-260.9,55.8z"/>
		<path id="XMLID_57_" class="st11" d="M-274.9,61.1h159.6c3.6,1.9,6.7,4.3,9.1,6.9h-177.6C-281.3,65.4-278.4,63.1-274.9,61.1z"/>
		<path id="XMLID_56_" class="st12" d="M-282.2,66.4h174.4c0.6,0.5,1.1,1,1.6,1.6h-177.6C-283.2,67.5-282.7,66.9-282.2,66.4z"/>
	</g>
	<g id="XMLID_298_">
		<path id="XMLID_55_" class="st27" d="M110.3,37.6H28c5.1-1.4,10.6-2.2,16.5-2.2c4.8,0,9.4,0.5,13.7,1.5c-0.2-1.2-0.3-2.4-0.3-3.6
			c0-16.8,20-30.4,44.7-30.4c2.6,0,5.2,0.2,7.7,0.5V37.6z"/>
		<path id="XMLID_54_" class="st28" d="M110.3,42.9H15.8c7.6-4.7,17.7-7.6,28.7-7.6c4.8,0,9.4,0.5,13.7,1.5
			c-0.2-1.2-0.3-2.4-0.3-3.6c0-16.8,20-30.4,44.7-30.4c2.6,0,5.2,0.2,7.7,0.5V42.9z"/>
		<path id="XMLID_53_" class="st29" d="M110.3,48.2H9c7.6-7.8,20.7-12.9,35.5-12.9c4.8,0,9.4,0.5,13.7,1.5c-0.2-1.2-0.3-2.4-0.3-3.6
			c0-16.8,20-30.4,44.7-30.4c2.6,0,5.2,0.2,7.7,0.5V48.2z"/>
		<path id="XMLID_52_" class="st30" d="M87,4.8h23.3v48.8H4.9c6.3-10.7,21.6-18.3,39.6-18.3c4.8,0,9.4,0.5,13.7,1.5
			c-0.2-1.2-0.3-2.4-0.3-3.6C57.9,20.2,70,9.1,87,4.8z"/>
		<path id="XMLID_51_" class="st31" d="M73.6,10.1h36.6v48.8H2.6c3.7-13.4,21-23.6,41.9-23.6c4.8,0,9.4,0.5,13.7,1.5
			c-0.2-1.2-0.3-2.4-0.3-3.6C57.9,24,64,15.7,73.6,10.1z"/>
		<path id="XMLID_50_" class="st32" d="M66.4,15.5h43.9v48.8H1.9c0-16,19.1-28.9,42.6-28.9c4.8,0,9.4,0.5,13.7,1.5
			c-0.2-1.2-0.3-2.4-0.3-3.6C57.9,26.6,61,20.5,66.4,15.5z"/>
		<path id="XMLID_49_" class="st33" d="M61.8,20.8h48.5V68H2.3c-0.2-1.2-0.4-2.5-0.4-3.7c0-16,19.1-28.9,42.6-28.9
			c4.8,0,9.4,0.5,13.7,1.5c-0.2-1.2-0.3-2.4-0.3-3.6C57.9,28.8,59.3,24.6,61.8,20.8z"/>
		<path id="XMLID_48_" class="st34" d="M59.1,26.1h51.1V68H2.3c-0.2-1.2-0.4-2.5-0.4-3.7c0-16,19.1-28.9,42.6-28.9
			c4.8,0,9.4,0.5,13.7,1.5c-0.2-1.2-0.3-2.4-0.3-3.6C57.9,30.8,58.3,28.4,59.1,26.1z"/>
		<path id="XMLID_47_" class="st35" d="M58,31.5h52.3V68H2.3c-0.2-1.2-0.4-2.5-0.4-3.7c0-16,19.1-28.9,42.6-28.9
			c4.8,0,9.4,0.5,13.7,1.5c-0.2-1.2-0.3-2.4-0.3-3.6C57.9,32.7,57.9,32.1,58,31.5z"/>
		<path id="XMLID_46_" class="st36" d="M31.1,36.8H58l0.2,0.1l0-0.1h52.1V68H2.3c-0.2-1.2-0.4-2.5-0.4-3.7
			C1.9,51.5,14.1,40.6,31.1,36.8z"/>
		<path id="XMLID_45_" class="st37" d="M17.1,42.1h93.2V68H2.3c-0.2-1.2-0.4-2.5-0.4-3.7C1.9,55.4,7.8,47.4,17.1,42.1z"/>
		<path id="XMLID_44_" class="st38" d="M9.8,47.5h100.5V68H2.3c-0.2-1.2-0.4-2.5-0.4-3.7C1.9,58,4.8,52.2,9.8,47.5z"/>
		<path id="XMLID_43_" class="st39" d="M5.4,52.8h104.9V68H2.3c-0.2-1.2-0.4-2.5-0.4-3.7C1.9,60.2,3.2,56.3,5.4,52.8z"/>
		<path id="XMLID_42_" class="st40" d="M2.9,58.1h107.4V68H2.3c-0.2-1.2-0.4-2.5-0.4-3.7C1.9,62.2,2.3,60.1,2.9,58.1z"/>
		<path id="XMLID_16_" class="st41" d="M1.9,63.5h108.3V68H2.3c-0.2-1.2-0.4-2.5-0.4-3.7C1.9,64,1.9,63.7,1.9,63.5z"/>
	</g>
	<g id="XMLID_283_" class="st0">
		<path id="XMLID_15_" class="st1" d="M31.4,42.4h-164.1c7.7-4.4,17.7-7,28.5-7c2.9,0,5.8,0.2,8.5,0.6c-0.2-1.1-0.4-2.3-0.4-3.5
			c0-13.7,16.3-24.8,36.5-24.8c14.6,0,27.3,5.9,33.1,14.3c17.8,1.1,33,8.4,40.8,18.8c0.8,0,1.6,0,2.5,0
			C21.9,40.7,26.8,41.3,31.4,42.4z"/>
		<path id="XMLID_14_" class="st2" d="M45.3,47.7h-185.4c8.1-7.5,21.2-12.3,35.9-12.3c2.9,0,5.8,0.2,8.5,0.6
			c-0.2-1.1-0.4-2.3-0.4-3.5c0-13.7,16.3-24.8,36.5-24.8c14.6,0,27.3,5.9,33.1,14.3c17.8,1.1,33,8.4,40.8,18.8c0.8,0,1.6,0,2.5,0
			C27.6,40.7,37.6,43.4,45.3,47.7z"/>
		<path id="XMLID_13_" class="st3" d="M52.7,53.1h-197.5c7.1-10.4,22.6-17.6,40.6-17.6c2.9,0,5.8,0.2,8.5,0.6
			c-0.2-1.1-0.4-2.3-0.4-3.5c0-13.7,16.3-24.8,36.5-24.8c14.6,0,27.3,5.9,33.1,14.3c17.8,1.1,33,8.4,40.8,18.8c0.8,0,1.6,0,2.5,0
			C31.5,40.7,44.6,45.6,52.7,53.1z"/>
		<path id="XMLID_12_" class="st4" d="M-73.5,9.6h28c8.4,2.4,15.2,6.8,19.1,12.4c17.8,1.1,33,8.4,40.8,18.8c0.8,0,1.6,0,2.5,0
			c18,0,33.5,7.2,40.6,17.7h-204.9c4.9-13.2,22.4-23,43.3-23c2.9,0,5.8,0.2,8.5,0.6c-0.2-1.1-0.4-2.3-0.4-3.5
			C-96.1,22.2-86.8,13.3-73.5,9.6z"/>
		<path id="XMLID_11_" class="st5" d="M-85.3,14.9h51.5c3,2,5.5,4.4,7.3,7.1c17.8,1.1,33,8.4,40.8,18.8c0.8,0,1.6,0,2.5,0
			c20.9,0,38.5,9.8,43.4,23h-208.9c1.6-15.8,20.9-28.3,44.6-28.3c2.9,0,5.8,0.2,8.5,0.6c-0.2-1.1-0.4-2.3-0.4-3.5
			C-96.1,25.6-91.9,19.4-85.3,14.9z"/>
		<path id="XMLID_10_" class="st6" d="M-91.3,20.3h63.5c0.5,0.6,0.9,1.1,1.3,1.7c17.8,1.1,33,8.4,40.8,18.8c0.8,0,1.6,0,2.5,0
			c23.2,0,42.2,12,44.4,27.3h-210c-0.1-0.7-0.1-1.5-0.1-2.2c0-16.8,20-30.4,44.7-30.4c2.9,0,5.8,0.2,8.5,0.6
			c-0.2-1.1-0.4-2.3-0.4-3.5C-96.1,28.1-94.3,23.9-91.3,20.3z"/>
		<path id="XMLID_9_" class="st7" d="M-94.6,25.6h86.5c9.6,3.3,17.5,8.6,22.4,15.2c0.8,0,1.6,0,2.5,0c23.2,0,42.2,12,44.5,27.3h-210
			c-0.1-0.7-0.1-1.5-0.1-2.2c0-16.8,20-30.4,44.7-30.4c2.9,0,5.8,0.2,8.5,0.6c-0.2-1.1-0.4-2.3-0.4-3.5
			C-96.1,30.1-95.5,27.8-94.6,25.6z"/>
		<path id="XMLID_8_" class="st8" d="M-96,30.9H3.2c4.5,2.8,8.3,6.1,11.1,9.8c0.8,0,1.6,0,2.5,0c23.2,0,42.2,12,44.5,27.3h-210
			c-0.1-0.7-0.1-1.5-0.1-2.2c0-16.8,20-30.4,44.7-30.4c2.9,0,5.8,0.2,8.5,0.6c-0.2-1.1-0.4-2.3-0.4-3.5C-96.1,32-96,31.5-96,30.9z"
			/>
		<path id="XMLID_7_" class="st9" d="M-114.8,36.3h125c1.5,1.4,2.9,2.9,4.1,4.5c0.8,0,1.6,0,2.5,0c23.2,0,42.2,12,44.5,27.3h-210
			c-0.1-0.7-0.1-1.5-0.1-2.2C-148.9,51.5-134.4,39.5-114.8,36.3z"/>
		<path id="XMLID_6_" class="st10" d="M-131.3,41.6H27.5c18.1,3,31.8,13.5,33.7,26.4h-210c-0.1-0.7-0.1-1.5-0.1-2.2
			C-148.9,55.9-142,47.2-131.3,41.6z"/>
		<path id="XMLID_5_" class="st11" d="M-139.3,46.9H43.9c9.6,5,16.1,12.5,17.4,21.1h-210c-0.1-0.7-0.1-1.5-0.1-2.2
			C-148.9,58.7-145.3,52.1-139.3,46.9z"/>
		<path id="XMLID_4_" class="st12" d="M-144.3,52.3H51.8c5.1,4.4,8.5,9.8,9.4,15.7h-210c-0.1-0.7-0.1-1.5-0.1-2.2
			C-148.9,60.9-147.2,56.4-144.3,52.3z"/>
		<path id="XMLID_3_" class="st13" d="M-147.3,57.6H56.8c2.3,3.2,3.9,6.7,4.4,10.4h-210c-0.1-0.7-0.1-1.5-0.1-2.2
			C-148.9,63-148.3,60.2-147.3,57.6z"/>
		<path id="XMLID_2_" class="st14" d="M-148.7,63H59.8c0.7,1.6,1.1,3.3,1.4,5.1h-210c-0.1-0.7-0.1-1.5-0.1-2.2
			C-148.9,64.8-148.8,63.9-148.7,63z"/>
	</g>
</g>
</svg>
