<?xml version="1.0" encoding="utf-8"?>
<!-- Generator: Adobe Illustrator 19.0.0, SVG Export Plug-In . SVG Version: 6.00 Build 0)  -->
<svg version="1.1" id="Capa_1" xmlns="http://www.w3.org/2000/svg" xmlns:xlink="http://www.w3.org/1999/xlink" x="0px" y="0px"
	 viewBox="0 0 217.7 70.5" style="enable-background:new 0 0 217.7 70.5;" xml:space="preserve">
<style type="text/css">
	.st0{fill-rule:evenodd;clip-rule:evenodd;fill:#FFFFFF;}
	.st1{fill-rule:evenodd;clip-rule:evenodd;fill:#FEFEFF;}
	.st2{fill-rule:evenodd;clip-rule:evenodd;fill:#FBFDFE;}
	.st3{fill-rule:evenodd;clip-rule:evenodd;fill:#F9FBFD;}
	.st4{fill-rule:evenodd;clip-rule:evenodd;fill:#F6F8FB;}
	.st5{fill-rule:evenodd;clip-rule:evenodd;fill:#F4F7FA;}
	.st6{fill-rule:evenodd;clip-rule:evenodd;fill:#F0F4FA;}
	.st7{fill-rule:evenodd;clip-rule:evenodd;fill:#EEF3F9;}
	.st8{fill-rule:evenodd;clip-rule:evenodd;fill:#ECF1F7;}
	.st9{fill-rule:evenodd;clip-rule:evenodd;fill:#EAEFF6;}
	.st10{fill-rule:evenodd;clip-rule:evenodd;fill:#E7EEF4;}
	.st11{fill-rule:evenodd;clip-rule:evenodd;fill:#E5EBF3;}
</style>
<g id="XMLID_15_">
	<path id="XMLID_13_" class="st0" d="M189.5,52.7H24.1c6.2-2.1,13-3.3,20.1-3.3c5.8,0,11.4,0.8,16.7,2.3c-0.2-1.7-0.4-3.5-0.4-5.3
		c0-24.8,24.4-45,54.5-45c30.1,0,54.5,20.1,54.5,45c0,1.8-0.1,3.5-0.4,5.2c2.3-0.3,4.6-0.4,7-0.4C180.8,51.2,185.2,51.7,189.5,52.7z
		"/>
	<path id="XMLID_12_" class="st1" d="M207.1,60.6H9.2c9.2-7,21.5-11.2,35-11.2c5.8,0,11.4,0.8,16.7,2.3c-0.2-1.7-0.4-3.5-0.4-5.3
		c0-24.8,24.4-45,54.5-45c30.1,0,54.5,20.1,54.5,45c0,1.8-0.1,3.5-0.4,5.2c2.3-0.3,4.6-0.4,7-0.4C187.9,51.2,198.8,54.7,207.1,60.6z
		"/>
	<path id="XMLID_11_" class="st2" d="M215.6,68.5H0.9C10.3,57,26.1,49.4,44.2,49.4c5.8,0,11.4,0.8,16.7,2.3
		c-0.2-1.7-0.4-3.5-0.4-5.3c0-24.8,24.4-45,54.5-45c30.1,0,54.5,20.1,54.5,45c0,1.8-0.1,3.5-0.4,5.2c2.3-0.3,4.6-0.4,7-0.4
		C192.5,51.2,207,58.1,215.6,68.5z"/>
	<path id="XMLID_10_" class="st3" d="M96,4.2h37.9c20.7,6.4,35.5,22.8,35.5,42.2c0,1.8-0.1,3.5-0.4,5.2c2.3-0.3,4.6-0.4,7-0.4
		c17.1,0,32,7.4,40.4,18.6H0c9.2-12.2,25.5-20.3,44.2-20.3c5.8,0,11.4,0.8,16.7,2.3c-0.2-1.7-0.4-3.5-0.4-5.3
		C60.5,27,75.3,10.5,96,4.2z"/>
	<path id="XMLID_9_" class="st4" d="M79.7,12.1h70.5c11.8,8.2,19.2,20.5,19.2,34.3c0,1.8-0.1,3.5-0.4,5.2c2.3-0.3,4.6-0.4,7-0.4
		c17.1,0,32,7.4,40.4,18.6H0c9.2-12.2,25.5-20.3,44.2-20.3c5.8,0,11.4,0.8,16.7,2.3c-0.2-1.7-0.4-3.5-0.4-5.3
		C60.5,32.6,68,20.3,79.7,12.1z"/>
	<path id="XMLID_8_" class="st5" d="M70.9,20h88.3c6.5,7.4,10.3,16.5,10.3,26.4c0,1.8-0.1,3.5-0.4,5.2c2.3-0.3,4.6-0.4,7-0.4
		c17.1,0,32,7.4,40.4,18.6H0c9.2-12.2,25.5-20.3,44.2-20.3c5.8,0,11.4,0.8,16.7,2.3c-0.2-1.7-0.4-3.5-0.4-5.3
		C60.5,36.5,64.3,27.4,70.9,20z"/>
	<path id="XMLID_7_" class="st6" d="M65.3,27.9h99.4c3.1,5.6,4.8,11.9,4.8,18.5c0,1.8-0.1,3.5-0.4,5.2c2.3-0.3,4.6-0.4,7-0.4
		c17.1,0,32,7.4,40.4,18.6H0c9.2-12.2,25.5-20.3,44.2-20.3c5.8,0,11.4,0.8,16.7,2.3c-0.2-1.7-0.4-3.5-0.4-5.3
		C60.5,39.8,62.2,33.5,65.3,27.9z"/>
	<path id="XMLID_6_" class="st7" d="M62,35.8H168c1,3.4,1.5,6.9,1.5,10.6c0,1.8-0.1,3.5-0.4,5.2c2.3-0.3,4.6-0.4,7-0.4
		c17.1,0,32,7.4,40.4,18.6H0c9.2-12.2,25.5-20.3,44.2-20.3c5.8,0,11.4,0.8,16.7,2.3c-0.2-1.7-0.4-3.5-0.4-5.3
		C60.5,42.7,61,39.2,62,35.8z"/>
	<path id="XMLID_5_" class="st8" d="M60.6,43.7h108.8c0.1,0.9,0.1,1.8,0.1,2.7c0,1.8-0.1,3.5-0.4,5.2c2.3-0.3,4.6-0.4,7-0.4
		c17.1,0,32,7.4,40.4,18.6H0c9.2-12.2,25.5-20.3,44.2-20.3c5.8,0,11.4,0.8,16.7,2.3c-0.2-1.7-0.4-3.5-0.4-5.3
		C60.5,45.5,60.5,44.6,60.6,43.7z"/>
	<path id="XMLID_4_" class="st9" d="M27.8,51.6h32.8l0.3,0.1l0-0.1h122.3c14.1,1.7,26.1,8.6,33.3,18.2H0
		C6.3,61.3,16.2,54.8,27.8,51.6z"/>
	<path id="XMLID_3_" class="st10" d="M10.7,59.5h194.6c4.4,2.8,8.2,6.3,11.1,10.3H0C2.9,65.9,6.5,62.4,10.7,59.5z"/>
	<path id="XMLID_2_" class="st11" d="M1.9,67.4h212.7c0.7,0.8,1.3,1.6,1.9,2.4H0C0.6,68.9,1.2,68.2,1.9,67.4z"/>
</g>
</svg>
