<?xml version="1.0" encoding="utf-8"?>
<!-- Generator: Adobe Illustrator 19.0.0, SVG Export Plug-In . SVG Version: 6.00 Build 0)  -->
<svg version="1.1" id="Capa_1" xmlns="http://www.w3.org/2000/svg" xmlns:xlink="http://www.w3.org/1999/xlink" x="0px" y="0px"
	 viewBox="0 0 200 64.7" style="enable-background:new 0 0 200 64.7;" xml:space="preserve">
<style type="text/css">
	.st0{fill-rule:evenodd;clip-rule:evenodd;fill:#363950;}
	.st1{fill-rule:evenodd;clip-rule:evenodd;fill:#797C95;}
	.st2{fill-rule:evenodd;clip-rule:evenodd;fill:#EDEDF1;}
	.st3{fill-rule:evenodd;clip-rule:evenodd;fill:#4B4E6C;}
	.st4{fill-rule:evenodd;clip-rule:evenodd;fill:#FFFFFF;}
	.st5{fill-rule:evenodd;clip-rule:evenodd;fill:#B1B2C0;}
	.st6{fill-rule:evenodd;clip-rule:evenodd;fill:#A8ABBF;}
</style>
<g id="XMLID_2_">
	<rect id="XMLID_137_" x="77.4" y="48.4" class="st0" width="1" height="12.8"/>
	<path id="XMLID_136_" class="st0" d="M74.8,58h0.7c0.4,0,0.8,0.3,0.8,0.8v4.2c0,0.4-0.3,0.8-0.8,0.8h-0.7c-0.4,0-0.8-0.3-0.8-0.8
		v-4.2C74,58.3,74.4,58,74.8,58z"/>
	<path id="XMLID_135_" class="st0" d="M80.3,58h0.7c0.4,0,0.8,0.3,0.8,0.8v4.2c0,0.4-0.3,0.8-0.8,0.8h-0.7c-0.4,0-0.8-0.3-0.8-0.8
		v-4.2C79.6,58.3,79.9,58,80.3,58z"/>
	<path id="XMLID_134_" class="st0" d="M76.6,59.9h0.2c0.1,0,0.3,0.1,0.3,0.3v1.4c0,0.1-0.1,0.3-0.3,0.3h-0.2c-0.1,0-0.3-0.1-0.3-0.3
		v-1.4C76.3,60,76.4,59.9,76.6,59.9z"/>
	<path id="XMLID_133_" class="st0" d="M79.1,59.9h0.2c0.1,0,0.3,0.1,0.3,0.3v1.4c0,0.1-0.1,0.3-0.3,0.3h-0.2c-0.1,0-0.3-0.1-0.3-0.3
		v-1.4C78.8,60,78.9,59.9,79.1,59.9z"/>
	<rect id="XMLID_132_" x="76.7" y="60.5" class="st0" width="2.5" height="0.7"/>
	
		<rect id="XMLID_131_" x="80.8" y="47.7" transform="matrix(0.8073 0.5902 -0.5902 0.8073 47.007 -37.5983)" class="st0" width="0.5" height="11"/>
	
		<rect id="XMLID_130_" x="79.8" y="47.9" transform="matrix(-0.4999 0.8661 -0.8661 -0.4999 163.6041 6.424)" class="st0" width="0.3" height="5"/>
	<polygon id="XMLID_129_" class="st0" points="76.3,48.4 78.5,48.4 78.5,61.2 76.3,56.1 	"/>
	<path id="XMLID_128_" class="st1" d="M3.2,42.5L90.9,50c0.1-0.9-0.1-3.4,0.1-4.3L3.8,40.3C0,40,0.4,42.3,3.2,42.5z"/>
	<path id="XMLID_127_" class="st2" d="M90.9,48.8c0-0.9,0-1.9,0-2.6L5.6,40.8c-2-0.1-1.8,1-0.3,1.2L90.9,48.8z"/>
	<polygon id="XMLID_126_" class="st0" points="68.5,45.8 63.9,45.6 63.9,47.7 68.5,47.9 	"/>
	<path id="XMLID_125_" class="st1" d="M83.6,49.5l7.3,0.5c0.1-0.9-0.1-3.4,0.1-4.3l-8-0.3C82.5,46.7,82.7,48,83.6,49.5z"/>
	<path id="XMLID_124_" class="st0" d="M3.2,42.5l87.9,7.6c0-0.3-0.3-0.7-0.3-0.9c0.2-0.5,0.4-0.1,0.4-0.3l-87.8-7
		c-1.2-0.1-2.1-0.3-2.5-0.6C1.2,42.2,2.4,42.4,3.2,42.5z"/>
	<path id="XMLID_123_" class="st3" d="M66.2,61.5c3.2,0,5.8-2.6,5.8-5.8c0-3.2-2.6-5.8-5.8-5.8c-3.2,0-5.8,2.6-5.8,5.8
		C60.4,58.9,63,61.5,66.2,61.5z"/>
	<path id="XMLID_122_" class="st2" d="M66.2,60.3c3.4,0,6.1-2.7,6.1-6.1c0-3.4-2.7-6.1-6.1-6.1c-3.4,0-6.1,2.7-6.1,6.1
		C60.1,57.6,62.8,60.3,66.2,60.3z"/>
	<path id="XMLID_121_" class="st1" d="M71.3,57.6c-1.1,1.7-3,2.8-5.1,2.8c-3.1,0-5.7-2.3-6.1-5.3c-0.4-3.4,2.5-5.9,6.1-5.9
		c3.6,0,6.3,3.3,5.2,8C71.3,57.3,71.3,57.4,71.3,57.6z"/>
	<path id="XMLID_120_" class="st3" d="M66.2,49.2c2.8,0,5.2,2.4,5.2,5.3c0,2.9-2.3,5.3-5.2,5.3c-2.9,0-5.2-2.4-5.2-5.3
		C61,51.5,63.4,49.2,66.2,49.2z"/>
	<path id="XMLID_119_" class="st3" d="M66.2,59.3c2.8,0,5-2.3,5-5s-2.3-5-5-5c-2.8,0-5,2.3-5,5S63.4,59.3,66.2,59.3z"/>
	<path id="XMLID_118_" class="st0" d="M66.2,58.5c2.4,0,4.3-1.9,4.3-4.3s-1.9-4.3-4.3-4.3c-2.4,0-4.3,1.9-4.3,4.3
		S63.8,58.5,66.2,58.5z"/>
	<circle id="XMLID_117_" class="st3" cx="66.2" cy="54.2" r="1.8"/>
	<circle id="XMLID_116_" class="st0" cx="66.2" cy="54.2" r="1.4"/>
	<path id="XMLID_115_" class="st0" d="M65.3,48.7l-1-2.3c0,0,0.4-0.7,1.9-0.6c1.5,0.1,1.8,0.6,1.8,0.6l-0.8,2.5L65.3,48.7z"/>
	<path id="XMLID_114_" class="st3" d="M68,46.3l-0.8,2.5l-1.4-0.1l-1.2-2.8c0,0,0.9,0,2,0C67.6,46,67.8,46.2,68,46.3z"/>
	<polygon id="XMLID_113_" class="st2" points="68.9,45.2 63.5,44.8 63.5,46.2 68.9,46.6 	"/>
	<polygon id="XMLID_112_" class="st0" points="33.6,43.5 30.6,43.4 30.6,44.8 33.6,44.9 	"/>
	<path id="XMLID_111_" class="st3" d="M32.1,53.7c2.1,0,3.7-1.7,3.7-3.7c0-2.1-1.7-3.7-3.7-3.7c-2.1,0-3.7,1.7-3.7,3.7
		C28.4,52,30.1,53.7,32.1,53.7z"/>
	<path id="XMLID_110_" class="st4" d="M32.1,52.9c2.2,0,3.9-1.8,3.9-3.9c0-2.2-1.8-3.9-3.9-3.9c-2.2,0-3.9,1.8-3.9,3.9
		C28.2,51.2,30,52.9,32.1,52.9z"/>
	<path id="XMLID_109_" class="st1" d="M35.4,51.1c-0.7,1.1-1.9,1.8-3.3,1.8c-2,0-3.6-1.5-3.9-3.4c-0.2-2.2,1.6-3.8,3.9-3.8
		c2.3,0,4.1,2.1,3.3,5.2C35.4,51,35.4,51.1,35.4,51.1z"/>
	<path id="XMLID_108_" class="st3" d="M32.1,45.7c1.8,0,3.4,1.5,3.4,3.4c0,1.9-1.5,3.4-3.4,3.4c-1.9,0-3.4-1.5-3.4-3.4
		C28.7,47.3,30.3,45.7,32.1,45.7z"/>
	<path id="XMLID_107_" class="st3" d="M32.1,52.2c1.8,0,3.2-1.5,3.2-3.2c0-1.8-1.5-3.2-3.2-3.2c-1.8,0-3.2,1.5-3.2,3.2
		C28.9,50.8,30.3,52.2,32.1,52.2z"/>
	<path id="XMLID_106_" class="st0" d="M32.1,51.7c1.5,0,2.8-1.2,2.8-2.8c0-1.5-1.2-2.8-2.8-2.8s-2.8,1.2-2.8,2.8
		C29.4,50.5,30.6,51.7,32.1,51.7z"/>
	<circle id="XMLID_105_" class="st3" cx="32.1" cy="49" r="1.1"/>
	<circle id="XMLID_104_" class="st0" cx="32.1" cy="49" r="0.9"/>
	<path id="XMLID_103_" class="st0" d="M31.5,45.4l-0.6-1.5c0,0,0.2-0.4,1.2-0.4c1,0,1.2,0.4,1.2,0.4l-0.5,1.6L31.5,45.4z"/>
	<path id="XMLID_102_" class="st3" d="M33.3,43.9l-0.5,1.6l-0.9-0.1L31.3,44c0,0,0.3-0.4,1.1-0.4C32.9,43.6,33.2,43.8,33.3,43.9z"/>
	<polygon id="XMLID_101_" class="st2" points="33.9,43.1 30.4,42.9 30.4,43.8 33.9,44 	"/>
	<path id="XMLID_100_" class="st1" d="M99.5,2.1c0-0.9,0.7-0.9,0.7,0l0.3,26.2c-0.2,0-0.4,0-0.7,0c-0.2,0-0.4,0-0.7,0L99.5,2.1z"/>
	<path id="XMLID_99_" class="st3" d="M99.7,2.1c0-0.9,0.3-0.9,0.3,0l0.1,26.2c-0.1,0-0.2,0-0.3,0c-0.1,0-0.2,0-0.3,0L99.7,2.1z"/>
	<rect id="XMLID_98_" x="121.2" y="48.4" class="st0" width="1" height="12.8"/>
	<path id="XMLID_97_" class="st0" d="M124.8,58h-0.7c-0.4,0-0.8,0.3-0.8,0.8v4.2c0,0.4,0.3,0.8,0.8,0.8h0.7c0.4,0,0.8-0.3,0.8-0.8
		v-4.2C125.6,58.3,125.2,58,124.8,58z"/>
	<path id="XMLID_96_" class="st0" d="M119.3,58h-0.7c-0.4,0-0.8,0.3-0.8,0.8v4.2c0,0.4,0.3,0.8,0.8,0.8h0.7c0.4,0,0.8-0.3,0.8-0.8
		v-4.2C120,58.3,119.7,58,119.3,58z"/>
	<path id="XMLID_95_" class="st0" d="M123,59.9h-0.2c-0.1,0-0.3,0.1-0.3,0.3v1.4c0,0.1,0.1,0.3,0.3,0.3h0.2c0.1,0,0.3-0.1,0.3-0.3
		v-1.4C123.3,60,123.2,59.9,123,59.9z"/>
	<path id="XMLID_94_" class="st0" d="M120.5,59.9h-0.2c-0.1,0-0.3,0.1-0.3,0.3v1.4c0,0.1,0.1,0.3,0.3,0.3h0.2c0.1,0,0.3-0.1,0.3-0.3
		v-1.4C120.8,60,120.7,59.9,120.5,59.9z"/>
	<rect id="XMLID_93_" x="120.4" y="60.5" class="st0" width="2.5" height="0.7"/>
	
		<rect id="XMLID_92_" x="118.3" y="47.7" transform="matrix(-0.8073 0.5901 -0.5901 -0.8073 245.6125 26.1426)" class="st0" width="0.5" height="11"/>
	
		<rect id="XMLID_91_" x="119.5" y="47.9" transform="matrix(0.4996 0.8663 -0.8663 0.4996 103.578 -78.4113)" class="st0" width="0.3" height="5"/>
	<polygon id="XMLID_90_" class="st0" points="123.3,48.4 121.2,48.4 121.2,61.2 123.3,56.1 	"/>
	<rect id="XMLID_89_" x="99.4" y="53.9" class="st0" width="0.6" height="7.5"/>
	<path id="XMLID_88_" class="st0" d="M101.6,59.5h-0.4c-0.2,0-0.4,0.2-0.4,0.4v2.5c0,0.2,0.2,0.4,0.4,0.4h0.4c0.2,0,0.4-0.2,0.4-0.4
		V60C102,59.7,101.8,59.5,101.6,59.5z"/>
	<path id="XMLID_87_" class="st0" d="M98.3,59.5h-0.4c-0.2,0-0.4,0.2-0.4,0.4v2.5c0,0.2,0.2,0.4,0.4,0.4h0.4c0.2,0,0.4-0.2,0.4-0.4
		V60C98.8,59.7,98.6,59.5,98.3,59.5z"/>
	<path id="XMLID_86_" class="st0" d="M100.5,60.6h-0.1c-0.1,0-0.2,0.1-0.2,0.2v0.8c0,0.1,0.1,0.2,0.2,0.2h0.1c0.1,0,0.2-0.1,0.2-0.2
		v-0.8C100.7,60.7,100.6,60.6,100.5,60.6z"/>
	<path id="XMLID_85_" class="st0" d="M99.1,60.6h-0.1c-0.1,0-0.2,0.1-0.2,0.2v0.8c0,0.1,0.1,0.2,0.2,0.2h0.1c0.1,0,0.2-0.1,0.2-0.2
		v-0.8C99.2,60.7,99.2,60.6,99.1,60.6z"/>
	<rect id="XMLID_84_" x="99" y="61" class="st0" width="1.5" height="0.4"/>
	<path id="XMLID_83_" class="st1" d="M132.1,37.6l-20.6,2.1c-0.1-0.7-0.2-1.4-0.3-2l20.5-1.8C134.5,35.7,134.2,37.4,132.1,37.6z"/>
	<path id="XMLID_82_" class="st2" d="M131.8,36.8l-20.4,2c0-0.3-0.1-0.4-0.2-0.8l20.5-1.8C133.1,36.1,133.1,36.6,131.8,36.8z"/>
	<path id="XMLID_81_" class="st1" d="M196.4,42.5L108.7,50c-0.1-0.9,0.1-3.4-0.1-4.3l87.2-5.4C199.6,40,199.2,42.3,196.4,42.5z"/>
	<path id="XMLID_80_" class="st2" d="M108.7,48.8c0-0.9,0-1.9,0-2.6l85.3-5.4c2-0.1,1.8,1,0.3,1.2L108.7,48.8z"/>
	<polygon id="XMLID_79_" class="st0" points="131.1,45.8 135.7,45.6 135.7,47.7 131.1,47.9 	"/>
	<path id="XMLID_78_" class="st1" d="M116,49.5l-7.3,0.5c-0.1-0.9,0.1-3.4-0.1-4.3l8-0.3C117.1,46.7,116.9,48,116,49.5z"/>
	<path id="XMLID_77_" class="st0" d="M196.4,42.5l-87.9,7.6c0-0.3,0.3-0.7,0.3-0.9c-0.2-0.5-0.4-0.1-0.4-0.3l87.8-7
		c1.2-0.1,2.1-0.3,2.5-0.6C198.4,42.2,197.2,42.4,196.4,42.5z"/>
	<path id="XMLID_76_" class="st2" d="M99.8,53.6c6.4,0,11.7-5.7,11.7-12.6c0-7-5.2-12.6-11.7-12.6c-6.4,0-11.7,5.7-11.7,12.6
		C88.1,47.9,93.4,53.6,99.8,53.6z"/>
	<path id="XMLID_75_" class="st1" d="M110.3,46.5c-1.9,4.2-5.9,7.1-10.5,7.1c-4.6,0-8.6-2.9-10.5-7.1c3.2-0.8,6.7-1.3,10.5-1.3
		C103.6,45.2,107.1,45.7,110.3,46.5z"/>
	<path id="XMLID_72_" class="st1" d="M88.2,41.9L88.2,41.9L88.2,41.9C88.2,41.8,88.2,41.8,88.2,41.9L88.2,41.9z M88.2,42.5
		c0.1,1.7-0.7,2.8-1.4,3.6c-0.7,0.9-0.6,2,0.8,3.2c1.4,1.3-0.2,5.1,3.8,5.8c4,0.6,4.2-0.2,8.4-0.3c4.2,0,4.4,0.9,8.4,0.3
		c4-0.6,2.4-4.5,3.8-5.8s1.5-2.3,0.8-3.2c-0.7-0.8-1.4-1.8-1.4-3.5c-0.7,6.2-5.6,11.1-11.6,11.1C93.8,53.6,88.9,48.7,88.2,42.5z"/>
	<path id="XMLID_71_" class="st1" d="M102.8,45.3c2.7,0.2,7.1,0.6,6.7,1.5c-1.9,3.6-5.5,6.1-9.6,6.1c-6.1,0-11-5.3-11-11.9
		c0-3.6,1.5-6.6,3.8-9.1c0.8-0.9,1.6,0.7,2.2,2.1c0.5,1.4-1.7,2.6,0.2,5.3C96.5,41.5,101.1,45.2,102.8,45.3z"/>
	<path id="XMLID_70_" class="st3" d="M102.8,45.3c1,0.1,2.3,0.2,3.5,0.3c0.6,0.1,1.1,0.2,1.6,0.3c1,0.2,1.7,0.5,1.5,0.9
		c-1.9,3.6-5.5,6.1-9.6,6.1c-4.3,0-8.1-2.7-9.9-6.6c3-0.7,6.4-1.1,9.9-1.1c0.9,0,1.8,0,2.7,0.1C102.6,45.3,102.7,45.3,102.8,45.3z"
		/>
	<path id="XMLID_69_" class="st5" d="M99.5,34.9c-0.2-1.1-0.8-2.3-1.8-2.3c-1,0-1.9,0.8-2.4,2.1C94.9,36,99.5,37.2,99.5,34.9z"/>
	<g id="XMLID_62_">
		<path id="XMLID_68_" class="st3" d="M94.9,37.5c1.4-0.1,3,0.1,4.4,0.1c0.2,0,0.3-0.1,0.3-0.3V35c0-0.2,0-0.3-0.3-0.3
			c-1,0-2.2,0-3.4-0.1c-0.3,0-0.3,0-0.4,0.3l-0.7,2.5C94.6,37.4,94.7,37.5,94.9,37.5z"/>
		<path id="XMLID_67_" class="st3" d="M92,38.2c0.5-0.2,1.1-0.4,1.8-0.5c0.2,0,0.3-0.2,0.3-0.3l0.8-2.6c0.1-0.2-0.1-0.2-0.2-0.2
			c-0.2,0-0.3,0-0.5,0c-0.2,0-0.3,0.1-0.3,0.2l-2,3.3C91.7,38.2,91.8,38.2,92,38.2z"/>
		<path id="XMLID_66_" class="st3" d="M92.5,35l-2.1,3.1c-0.3,0.5-0.2,0.7,0.5,0.4c0.1,0,0.3-0.1,0.4-0.3l2.1-3.5
			c0.1-0.1,0.1-0.2-0.1-0.1C93.1,34.6,92.7,34.8,92.5,35z"/>
		<path id="XMLID_65_" class="st3" d="M104.7,37.5c-1.4-0.1-3,0.1-4.4,0.1c-0.2,0-0.3-0.1-0.3-0.3l0-2.3c0-0.2,0-0.3,0.3-0.3
			c1,0,2.2,0,3.4-0.1c0.3,0,0.3,0,0.4,0.3l0.7,2.5C105,37.4,104.9,37.5,104.7,37.5z"/>
		<path id="XMLID_64_" class="st3" d="M107.6,38.2c-0.5-0.2-1.1-0.4-1.8-0.5c-0.2,0-0.3-0.2-0.3-0.3l-0.8-2.6
			c-0.1-0.2,0.1-0.2,0.2-0.2c0.2,0,0.3,0,0.5,0c0.2,0,0.3,0.1,0.3,0.2l2,3.3C107.9,38.2,107.8,38.2,107.6,38.2z"/>
		<path id="XMLID_63_" class="st3" d="M107.1,35l2.1,3.1c0.3,0.5,0.2,0.7-0.5,0.4c-0.1,0-0.3-0.1-0.4-0.3l-2.1-3.5
			c-0.1-0.1-0.1-0.2,0.1-0.1C106.6,34.6,106.9,34.8,107.1,35z"/>
	</g>
	<path id="XMLID_55_" class="st0" d="M88.2,41.9L88.2,41.9L88.2,41.9C88.2,41.8,88.2,41.8,88.2,41.9L88.2,41.9z M89.9,47.7
		c0,1.3,0.6,3.1,0,2.6c-0.7-0.5-1.2-1.7-1.2-2.3c0-0.6-1-0.9-1.5-1c-0.5-0.1,0.4,0.7-0.1,0.6c-0.3-0.1-0.6-0.7-0.7-0.6
		c0,0.7,0.3,1.4,1.2,2.2c0.3,0.3,0.4,0.6,0.6,1.1c0.1-0.6,0-1-0.3-1.4c-0.6-0.7,0.1-1,0.7,0.5c0.6,1.5,0.7,1.8,0.7,3.1
		s1.2,1,1.2,2.1c0,0.1,0,0.2,0,0.3c0.3,0.1,0.5,0.2,0.9,0.2c0.4,0.1,0.7,0.1,1.1,0.1c0.7-0.6,2.8-0.5,3.6-0.5c1,0,0.2-0.9,1.3-1.2
		c0.1,0,0.1,0,0.2-0.1C94.3,52.7,91.6,50.6,89.9,47.7L89.9,47.7z M102.9,53.1c1,0.7,3.1,0.7,4.2,0.7c1.1,0,1.6-0.8,2.3-1.3
		c0.8-0.5,0.7-1.1,1-1.6c0.3-0.4,0.2-1.4,0.6-1.9c0-0.4-0.7,0.7-1.2,1c-0.4,0.3-0.3-0.5-0.5-1.8C107.8,50.6,105.5,52.4,102.9,53.1
		L102.9,53.1z M111.9,49.4c0,0,0.1-0.1,0.1-0.1c0.7-0.6,1-1.2,1.2-1.7c-0.8,0-1.4,0.1-1.3,0.5C111.9,48.5,111.9,48.9,111.9,49.4
		L111.9,49.4z M112.1,45.1c-0.4-0.7-0.7-1.5-0.7-2.5c-0.1,0.6-0.2,1.3-0.3,1.9C111.3,44.6,111.6,44.9,112.1,45.1L112.1,45.1z
		 M87.9,44.3c0.4,0.5,0.7,0.9,1,1.3c-0.4-1-0.6-2.1-0.7-3.2C88.2,43.2,88.1,43.8,87.9,44.3z"/>
	<path id="XMLID_54_" class="st1" d="M67.6,37.6l20.6,2.1c0.1-0.7,0.2-1.4,0.3-2L68,35.9C65.1,35.7,65.4,37.4,67.6,37.6z"/>
	<path id="XMLID_53_" class="st2" d="M67.9,36.8l20.4,2c0-0.3,0.1-0.4,0.2-0.8l-20.5-1.8C66.5,36.1,66.5,36.6,67.9,36.8z"/>
	<path id="XMLID_52_" class="st3" d="M133.4,61.5c3.2,0,5.8-2.6,5.8-5.8c0-3.2-2.6-5.8-5.8-5.8c-3.2,0-5.8,2.6-5.8,5.8
		C127.6,58.9,130.2,61.5,133.4,61.5z"/>
	<path id="XMLID_51_" class="st2" d="M133.4,60.3c3.4,0,6.1-2.7,6.1-6.1c0-3.4-2.7-6.1-6.1-6.1c-3.4,0-6.1,2.7-6.1,6.1
		C127.3,57.6,130.1,60.3,133.4,60.3z"/>
	<path id="XMLID_50_" class="st1" d="M128.3,57.6c1.1,1.7,3,2.8,5.1,2.8c3.1,0,5.7-2.3,6.1-5.3c0.4-3.4-2.5-5.9-6.1-5.9
		c-3.6,0-6.3,3.3-5.2,8C128.3,57.3,128.3,57.4,128.3,57.6z"/>
	<path id="XMLID_49_" class="st3" d="M133.4,49.2c-2.8,0-5.2,2.4-5.2,5.3c0,2.9,2.3,5.3,5.2,5.3c2.9,0,5.2-2.4,5.2-5.3
		C138.7,51.5,136.2,49.2,133.4,49.2z"/>
	<path id="XMLID_48_" class="st3" d="M133.4,59.3c2.8,0,5-2.3,5-5c0-2.8-2.3-5-5-5s-5,2.3-5,5C128.4,57,130.6,59.3,133.4,59.3z"/>
	<path id="XMLID_47_" class="st0" d="M133.4,58.5c2.4,0,4.3-1.9,4.3-4.3c0-2.4-1.9-4.3-4.3-4.3c-2.4,0-4.3,1.9-4.3,4.3
		C129.1,56.6,131.1,58.5,133.4,58.5z"/>
	<circle id="XMLID_46_" class="st3" cx="133.4" cy="54.2" r="1.8"/>
	<circle id="XMLID_45_" class="st0" cx="133.4" cy="54.2" r="1.4"/>
	<path id="XMLID_44_" class="st0" d="M134.3,48.7l1-2.3c0,0-0.4-0.7-1.9-0.6c-1.5,0.1-1.8,0.6-1.8,0.6l0.8,2.5L134.3,48.7z"/>
	<path id="XMLID_43_" class="st3" d="M131.6,46.3l0.8,2.5l1.4-0.1l1.2-2.8c0,0-0.9,0-2,0C132,46,131.8,46.2,131.6,46.3z"/>
	<polygon id="XMLID_42_" class="st2" points="130.7,45.2 136.1,44.8 136.1,46.2 130.7,46.6 	"/>
	<polygon id="XMLID_41_" class="st0" points="166,43.5 169,43.4 169,44.8 166,44.9 	"/>
	<path id="XMLID_40_" class="st3" d="M167.5,53.7c2.1,0,3.7-1.7,3.7-3.7c0-2.1-1.7-3.7-3.7-3.7c-2.1,0-3.7,1.7-3.7,3.7
		C163.8,52,165.4,53.7,167.5,53.7z"/>
	<path id="XMLID_39_" class="st4" d="M167.5,52.9c2.2,0,3.9-1.8,3.9-3.9c0-2.2-1.8-3.9-3.9-3.9s-3.9,1.8-3.9,3.9
		C163.6,51.2,165.3,52.9,167.5,52.9z"/>
	<path id="XMLID_38_" class="st1" d="M164.2,51.1c0.7,1.1,1.9,1.8,3.3,1.8c2,0,3.6-1.5,3.9-3.4c0.2-2.2-1.6-3.8-3.9-3.8
		c-2.3,0-4.1,2.1-3.3,5.2C164.2,51,164.2,51.1,164.2,51.1z"/>
	<path id="XMLID_37_" class="st3" d="M167.5,45.7c-1.8,0-3.4,1.5-3.4,3.4c0,1.9,1.5,3.4,3.4,3.4c1.9,0,3.4-1.5,3.4-3.4
		C170.9,47.3,169.3,45.7,167.5,45.7z"/>
	<path id="XMLID_36_" class="st3" d="M167.5,52.2c1.8,0,3.2-1.5,3.2-3.2c0-1.8-1.5-3.2-3.2-3.2c-1.8,0-3.2,1.5-3.2,3.2
		C164.2,50.8,165.7,52.2,167.5,52.2z"/>
	<path id="XMLID_35_" class="st0" d="M167.5,51.7c1.5,0,2.8-1.2,2.8-2.8c0-1.5-1.2-2.8-2.8-2.8c-1.5,0-2.8,1.2-2.8,2.8
		C164.7,50.5,166,51.7,167.5,51.7z"/>
	<circle id="XMLID_34_" class="st3" cx="167.5" cy="49" r="1.1"/>
	<circle id="XMLID_33_" class="st0" cx="167.5" cy="49" r="0.9"/>
	<path id="XMLID_32_" class="st0" d="M168.1,45.4l0.6-1.5c0,0-0.2-0.4-1.2-0.4c-1,0-1.2,0.4-1.2,0.4l0.5,1.6L168.1,45.4z"/>
	<path id="XMLID_31_" class="st3" d="M166.3,43.9l0.5,1.6l0.9-0.1l0.5-1.4c0,0-0.3-0.4-1.1-0.4C166.7,43.6,166.4,43.8,166.3,43.9z"
		/>
	<polygon id="XMLID_30_" class="st2" points="165.7,43.1 169.2,42.9 169.2,43.8 165.7,44 	"/>
	<g id="XMLID_21_">
		<path id="XMLID_29_" class="st1" d="M99.7,59.5c0.1,0,0.2-2.5,0.2-5.5c0-3-0.1-5.5-0.2-5.5c-0.1,0-0.2,2.5-0.2,5.5
			C99.5,57,99.6,59.5,99.7,59.5z"/>
		<ellipse id="XMLID_28_" class="st1" cx="99.7" cy="54" rx="5.5" ry="0.2"/>
		
			<ellipse id="XMLID_27_" transform="matrix(0.766 -0.6428 0.6428 0.766 -11.3699 76.7174)" class="st1" cx="99.7" cy="54" rx="5.5" ry="0.2"/>
		
			<ellipse id="XMLID_26_" transform="matrix(-0.766 -0.6428 0.6428 -0.766 141.3867 159.4164)" class="st1" cx="99.7" cy="54" rx="5.5" ry="0.2"/>
		
			<ellipse id="XMLID_25_" transform="matrix(0.4298 -0.9029 0.9029 0.4298 8.112 120.8019)" class="st1" cx="99.7" cy="54" rx="5.5" ry="0.2"/>
		
			<ellipse id="XMLID_24_" transform="matrix(-0.4466 -0.8947 0.8947 -0.4466 95.9343 167.2936)" class="st1" cx="99.7" cy="54" rx="7.8" ry="0.3"/>
		
			<ellipse id="XMLID_23_" transform="matrix(0.9357 0.3528 -0.3528 0.9357 25.4548 -31.7052)" class="st1" cx="99.7" cy="54" rx="5.5" ry="0.2"/>
		
			<ellipse id="XMLID_22_" transform="matrix(0.9345 -0.3559 0.3559 0.9345 -12.6829 39.0218)" class="st1" cx="99.7" cy="54" rx="5.5" ry="0.2"/>
	</g>
	<g id="XMLID_12_">
		<path id="XMLID_20_" class="st6" d="M99.7,58.2c0.1,0,0.2-1.9,0.2-4.2c0-2.3-0.1-4.2-0.2-4.2c-0.1,0-0.2,1.9-0.2,4.2
			C99.5,56.3,99.6,58.2,99.7,58.2z"/>
		<ellipse id="XMLID_19_" class="st6" cx="99.7" cy="54" rx="4.2" ry="0.2"/>
		
			<ellipse id="XMLID_18_" transform="matrix(0.766 -0.6428 0.6428 0.766 -11.37 76.7167)" class="st6" cx="99.7" cy="54" rx="4.2" ry="0.2"/>
		
			<ellipse id="XMLID_17_" transform="matrix(-0.766 -0.6428 0.6428 -0.766 141.3876 159.4162)" class="st6" cx="99.7" cy="54" rx="4.2" ry="0.2"/>
		
			<ellipse id="XMLID_16_" transform="matrix(0.4298 -0.9029 0.9029 0.4298 8.1121 120.802)" class="st6" cx="99.7" cy="54" rx="4.2" ry="0.2"/>
		
			<ellipse id="XMLID_15_" transform="matrix(-0.4466 -0.8947 0.8947 -0.4466 95.9343 167.2938)" class="st6" cx="99.7" cy="54" rx="6.1" ry="0.2"/>
		
			<ellipse id="XMLID_14_" transform="matrix(0.9357 0.3528 -0.3528 0.9357 25.4549 -31.7053)" class="st6" cx="99.7" cy="54" rx="4.2" ry="0.2"/>
		
			<ellipse id="XMLID_13_" transform="matrix(0.9345 -0.3559 0.3559 0.9345 -12.6827 39.0212)" class="st6" cx="99.7" cy="54" rx="4.2" ry="0.2"/>
	</g>
	<g id="XMLID_3_">
		<path id="XMLID_11_" class="st4" d="M99.7,56.8c0.1,0,0.1-1.3,0.1-2.8c0-1.6,0-2.8-0.1-2.8c-0.1,0-0.1,1.3-0.1,2.8
			C99.6,55.5,99.6,56.8,99.7,56.8z"/>
		<ellipse id="XMLID_10_" class="st4" cx="99.7" cy="54" rx="2.8" ry="0.1"/>
		
			<ellipse id="XMLID_9_" transform="matrix(0.766 -0.6428 0.6428 0.766 -11.3698 76.7175)" class="st4" cx="99.7" cy="54" rx="2.8" ry="0.1"/>
		
			<ellipse id="XMLID_8_" transform="matrix(-0.766 -0.6428 0.6428 -0.766 141.3868 159.4165)" class="st4" cx="99.7" cy="54" rx="2.8" ry="0.1"/>
		
			<ellipse id="XMLID_7_" transform="matrix(0.4298 -0.9029 0.9029 0.4298 8.112 120.8018)" class="st4" cx="99.7" cy="54" rx="2.8" ry="0.1"/>
		
			<ellipse id="XMLID_6_" transform="matrix(-0.4466 -0.8947 0.8947 -0.4466 95.9341 167.2937)" class="st4" cx="99.7" cy="54" rx="4.6" ry="0.2"/>
		
			<ellipse id="XMLID_5_" transform="matrix(0.9357 0.3528 -0.3528 0.9357 25.4544 -31.7049)" class="st4" cx="99.7" cy="54" rx="2.8" ry="0.1"/>
		
			<ellipse id="XMLID_4_" transform="matrix(0.9345 -0.3559 0.3559 0.9345 -12.683 39.0229)" class="st4" cx="99.7" cy="54" rx="2.8" ry="0.1"/>
	</g>
</g>
</svg>
